<?xml version="1.0" encoding="UTF-8"?>
<svg id="Layer_1" data-name="Layer 1" xmlns="http://www.w3.org/2000/svg" viewBox="0 0 1701 1390">
  <defs>
    <style>
      .cls-1 {
        fill: none;
      }

      .cls-1, .cls-2 {
        stroke: #efefef;
        stroke-miterlimit: 8;
        stroke-width: 5px;
      }

      .cls-3 {
        font-family: PretendardVariable-SemiBold, 'Pretendard Variable';
        font-size: 40px;
        font-variation-settings: 'wght' 600;
        font-weight: 600;
        isolation: isolate;
      }

      .cls-2 {
        fill: #fff;
        fill-rule: evenodd;
      }
    </style>
  </defs>
  <path class="cls-2" d="M1413.81,718.84c1.59-1.27,6.47.51,9.2-.44,3.17-.73,5.44-3.23,7.45-5.63,2.91-3.55,5.91-7.12,9.54-9.96,5.84-4.71,12.49-7.73,19.33-10.63,13.15-5.43,26.73-12.42,39.94-17.9,22.39-7.48,45.41-12.58,66.8-22.63,13.39-5.65,25.4-14.03,37.86-21.25,6.65-3.53,12.27-8.66,19.21-11.54,3.8-1.24,7.87-.37,11.76,0,3.98.41,7.96-.11,12.06-.26,4.54-.2,9.24-.12,13.63-1.59,3.66-1.05,6.98-3.46,10.78-3.92,2.88-.1,1.85,3.31.87,4.93-3.65,5.8-6.65,8.51-5.24,15.72.59,4.28,1.07,8.48,3.06,12.26,2.92,4.96,5.68,10,7.41,15.53,1.91,5.5,4.51,10.82,5.1,16.64.5,4.39.52,8.96,1.77,13.21,1.93,6.19,4.73,12.07,7.19,18.09,2.66,5.98,1.58,12.55.82,18.83-.33,7.46-.7,15.02-.78,22.41-.39,5.33,4.49,7.91,5.72,12.62.87,4.19-.34,8.46-.41,12.71-.25,3.35-.25,6.7.53,9.91.38,1.66.83,3.61.19,5.13-1.89,3.6-6.85,1.31-9.33-.62-2.32-1.73-5.13-2.84-8.06-2.39-4.71.54-8.5,3.96-12.86,5.08-4.08,1.1-8.25-.51-12.38-.02-3.43.3-6.68,1.93-10.08,2.22-2.3.24-4.64-.1-6.94-.24-3.83-.61-7.09,2.23-10.58,2.61-3.54.18-7.34-2.07-10.74-.22-6.24,4.2-8.72,12.21-13.79,17.62-3.24,3.79-6.7,7.44-9.35,11.68-1.89,2.98-3.43,6.11-5.55,8.9-3.76,4.97-6.78,10.48-9.57,16.03-2.42,6.29-.51,13.4-1.93,19.91-1.75,11.02-13.67,16.79-16.83,27.16-1.62,4.16-2.69,8.91-5.91,12.14-2.24,2.23-5.82,2.82-7.91,5.15-3.84,4.78-4.26,11.26-4.15,17.22-.05,1.79-.15,4.16-2.13,4.65-2.82.36-6.48-2-9.09-3.35-4.03-2.21-7.98-4.45-11.99-6.69-24.88-13.52-49.81-26.96-74.48-41.02-1.85-1.04-4.04-2.36-5.08-4.12-2.08-3.91,1.32-8.09,2.34-11.88,3.15-11.14,6.11-22.66,9.45-33.86,1.93-6.24.59-8.71-4.79-11.91-3.82-2.35-7.09-5.4-11.02-7.53-9.69-4.69-20.39-7.52-30.48-11.37-3.15-1.02-6.73-3.13-4.95-6.98,1.84-4.38,4.5-8.47,6.18-12.93,2.28-5.79,2.65-12.12,4.32-18.09,1.28-5.41,3.5-10.45,4.3-16.1.65-8.26.54-16.47.13-24.84-.1-2.56-1.97-6.2-.58-8.39l.08-.08Z"/>
  <path class="cls-2" d="M1227.63,897.72c2.99-1.64,7.63.66,10.92,1.44,4.64,1.39,9.27,2.88,13.94,3.29,9.78.94,19.44.64,29.12-1.23,15.94-2.13,31.36-6.94,45.98-13.52,5.68-2.23,11-2.64,17.29-3.75,5.01-.75,9.96-1.65,12.48-6.52,4.5-8.28,8.39-17.12,12.76-25.57,8.62-15.84,17.82-32.68,27.36-48.04,1.84-2.21,4.84-1.93,7.38-.95,8.51,2.86,17.13,6.05,25.53,9.09,5.32,1.76,9.69,4.92,14.17,8.29,2.71,2.05,6.67,3.82,8.1,6.96,1.15,3.73-.95,8.18-1.79,11.88-1.47,5.17-3.03,10.28-4.4,15.47-1.4,5.24-2.42,10.55-4.3,15.43-1.04,2.93-3.1,6.34-1.82,9.46.86,2.09,3.2,3.48,5.16,4.63,2.97,1.68,5.83,3.29,8.78,4.97,28,16.03,56.68,31.45,84.82,47.05,3.34,1.9,5.13,5.51.62,7.09-3.46,1.16-7.69.45-11.49.86-1.22.12-3.91.61-3.2,2.33,1.54,2.48,5.76,3.16,7.89,5.14,1.76,1.43,3.09,3.35,2.03,5.28-1.33,2.25-5.28,3.05-6.93,5.43-3.2,4.97-5.32,13.7-3.85,19.49.45,1.7,1.15,3.32,1.64,5.01,1.76,10.14,3.85,10.37,12.51,14.67,9.41,5.8,11.74,6.85,22.23,2.17,4.29-1.91,7.49,1,10.82,3.28,2.7,1.74,5.91,2.69,8.92,3.7,3.21,1.06,6.43,2.59,9.41,1.61,5.49-2.27,6.08-1.55,10.23,2.68,2.4,2.22,5.89,3.56,7.59,6.3,3.94,6.65-4.51,16.86-3.65,24.69.04,2.49.23,5.01-.27,7.47-.93,4.8-4.61,8.77-5.68,13.62-1.54,6.39-5.34,12.71-11.13,16.03-3.62,2.16-8.01,2.47-11.88,3.87-6.74,2.77-5.83,11.6-7.83,17.47-1.83,7.09-5.23,13.92-5.71,21.33-.24,2.47-.22,5.01-.9,7.41-1.04,3.98-4.7,6.96-8.16,9.15-3.68,2.37-8.33,2.52-12.69,2.62-3.8.03-7.28.54-8.69,4.37-1.14,3.43-3.7,5.77-6.66,7.7-2.36,1.8-4.71,3.32-7.65,2.73-5.09-1.26-10.18-3.65-14.8-5.82-4.22-2.51-10.37-5.88-14.79-1.95-1.88,1.92-1.38,5.65-1.23,8.88.36,3.13-.33,6.53.85,9.49.6,1.31,1.79,2.19,3.01,2.92,2.95,1.68,6.11,3.3,8.96,5.38,6.56,4.35-1,8.65-5.54,9.93-5.32,1.38-11.36,1.3-16.68-.15-2.67-.83-5.13-2.15-7.59-3.46-1.71-.78-4.39-2.5-5.71-.53-.91,1.38-.49,4.33-.92,6.6-.31,1.89-1.2,3.58-2.55,4.98-2.45,2.3-7.02,6.71-8.17,2.44-1.26-11.29-7.26-21.21-12.79-30.91-9.8-16.46-19.07-33.03-28.95-49.51-.65-1.09-1.26-2.2-1.6-3.42-.82-2.69.6-5.69-.25-8.63-.82-2.84-2.81-5.42-3.98-8.2-1.71-3.8-2.98-7.82-5.18-11.36-7.94-11.17-17.93-21.25-29.61-28.5-9.28-5.16-18.57-10.59-28.6-14.11-19.88-6.55-39.84-13.14-59.68-19.72-6.8-2.28-13.78-4.03-20.7-5.94-6.77-2.15-12.32-7.09-17.13-12.58-7.11-7.58-7.12-17.05-8.66-26.77-3.36-16.7-4.17-33.69-6.82-50.52-.44-3.81-1.67-7.53-2.43-11.22-.62-3.16-.4-6.41-.1-9.6.33-3.11.26-7.89,2.51-9.49l.12-.08Z"/>
  <path class="cls-2" d="M1184.37,875.43c10.96,6.49,22.35,12.05,34.03,17.4,2.47,1.14,5.33,2.43,6.61,4.94.76,1.46.93,3.14.91,4.77-.16,5.42-1.38,10.73-.04,15.98,5.05,19.85,4.87,40.86,9.13,60.89,1.43,9.38,1.62,18.63,8.48,25.9,5.14,5.81,10.8,10.74,18.02,12.87,9.46,2.33,19.03,5.18,28.27,8.4,17.27,5.67,34.52,11.33,51.9,17.02,4.39,1.47,8.64,3.45,12.74,5.59,11.34,5.76,22.93,11.77,31.71,21.12,4.89,5.23,10.24,10.22,13.92,16.41,2.5,4.26,3.7,9.14,6.14,13.34,1.06,1.92,2.28,3.84,2.67,6.03.51,2.68-.68,5.15,0,7.53.62,2.35,2.16,4.35,3.38,6.43,7.43,12.21,14.31,24.67,21.64,36.85,4.98,8.43,10.11,16.77,14.28,25.67,2.23,4.79,4.1,10.07,3.68,15.15-.4,5.88-4.69,10.56-9.49,13.66-3.88,2.62-7.5,4.39-9.7,7.6-1.68,2.35-2.22,5.25-2.53,8.07-.23,2.54-.64,6.12-2.93,7.34-3.42,1.29-7.21-2.04-9.57-4.37-2.33-2.41-2.93-6.12-5.95-7.86-3.72-2.08-8.36-2.67-12.54-3.53-3.82-.66-6.86-1.59-10.32-1.69-10.09-.27-7.74,5.64-12.42,11.34-3.66,4.19-9.98,4.61-15.3,5.09-5.07.74-9.78,1.03-12.35-4.37-1.9-3.69-2.28-7.97-4.06-11.72-2.35-5.74-7.86-8.83-11.98-13.18-2.39-2.48-3.98-5.59-6.19-8.21-2.58-3.04-6.57-4.68-9.45-7.58-2.9-2.57-4.33-6.26-6.86-9.12-1.17-1.31-2.59-2.39-3.92-3.53-4.83-4.1-8.16-10.24-7.11-16.69.95-5.09.44-9.06-5.71-8.73-5.78.26-11.41,2.32-17.18,2.47-2.5.13-5.12.04-7.47,1-4.58,1.6-7.99,8.17-13.42,6.8-2.04-.77-3.2-2.95-4.77-4.37-2.29-2.11-5.45-2.92-8.54-3.02-3.72-.22-5.6,3.39-8.66,4.82-5.78,2.34-12.24,2.65-18.15,4.19-6.9,1.4-6.44,5.99-7.28,12.23-.63,4.92-3.32,8.74-8.74,8.57-1.74.08-3.5,0-5.23.13-6.14.63-12.38,3.27-18.58,1.16-3.46-.94-6.14-3.5-9.28-5.1-2.12-1.21-4.89-1.53-6.44-3.07-.13-.14-.23-.29-.32-.44-1.09-1.78.83-4.92-.15-7.58-1.56-3.93-4.97-6.78-7.48-10.11-4.9-6.2-10.45-11.81-14.39-18.64-2.04-3.82-3.23-8.02-4.73-12.07-2.27-6.23-4.44-12.13-6.54-18.39-1.72-5.39-3.7-10.57-10.44-9.33-5.95.66-11.82,2.43-17.82,2.81-4.91.4-7.36-4.32-8.73-8.38-15.06-39.14-29.58-78.3-44.66-117.39-.88-2.98-3.45-5.94-4.46-8.4-.44-1.15-.6-2.36-.74-3.6-.15-1.74-.63-3.58-1.16-5.28-1.53-5.04-2.73-10.31-4.05-15.45-1.77-8.5-3.09-16.8-5.76-25.22-3.16-11.12-10.97-20.18-18.41-28.69-1.54-1.75-3.35-3.41-4.42-5.47-1.15-2.28-.16-4.44,1.54-6.27,2.71-2.92,5.54-5.79,8.26-8.7,9.86-10.23,19.11-21.23,30.47-29.77,3.32-2.59,6.49-5.46,10.04-7.39,2.97-1.6,6.39-2.57,9.83-3.69,3.34-1.01,6.77-2.22,10.16-1.78,2.79.33,5.49,1.55,8.03,2.77,7.32,3.58,14.43,7.03,21.7,10.61,10.19,4.87,19.99,10.34,30.25,15.04,1.36.51,2.73.76,3.94.47,2.49-.48,4-3.47,6.36-3.2,2.87.54,5.04,3.35,7.48,4.86,9.85,6.41,20.91,11.6,30.72,17.94l.17.1Z"/>
  <path class="cls-2" d="M1003.02,883.04c3.66.35,5.9,4.09,8.31,6.5,4.67,5.16,8.92,10.62,12.58,16.4,8.73,14.64,8.7,32.41,13.87,48.33,1.46,4.12,1.83,8.88,3.03,12.85,3.05,5.03,5.58,10.99,7.54,16.7,11.62,30.35,23.14,60.86,34.55,91.27,2.5,6.57,4.97,13.06,7.57,19.62,1,2.43,2.29,5.1,4.77,6.12,7.67,1.76,15.46-2.51,23.28-2.38,5-.22,6.75,5.07,8.03,9.01,3.67,10.02,6.88,20.52,11.15,30.39,5.49,9.54,13.69,17.38,20.33,26.09.9,1.21,1.69,2.49,1.96,3.86.56,2.42-.99,5.2.09,6.86.87,1.42,2.93,2.03,4.45,2.69,5.11,1.9,7.07,4.96,12.2,6.23,5.06,1.45,10.25.07,15.2-1.04,10.6-.77,16.11,1.01,17.04-12.39,0-4.62,2.28-8.1,6.79-8.86,5.03-1.23,10.2-1.82,15.21-3.12,7.57-2.03,8.07-8.94,17.51-4.58,3.08,1.08,4.71,4.98,7.17,6.06,5.24,1.54,8.79-4.69,13.11-6.56,3.57-1.68,7.89-.92,11.72-1.53,4.66-.59,9.41-2.21,14.14-2.23,9.8-.25,2.52,11.26,5.88,16.85,1.77,5.69,7.14,8.87,10.87,13.02,3.05,5.09,6.67,9.69,11.91,12.69,4.24,2.72,6.35,7.39,9.64,11.18,3.17,3.65,7.64,6.14,10.33,10.19,5.27,6.79-1.04,13.16-1.8,20.16-.11,2.93.97,6.28-.04,9.27-.91,2.84-3.82,4.57-5.51,7.1-1.81,2.46-2.45,5.75-4.12,8.24-1.26,1.96-3.13,3.41-4.73,5.08-3.99,4.93-6.6,11.18-10.01,16.6-2.8,5.23-2.31,11.67-2.87,17.6-.71,13.31-12.26,3.17-19.65,18.17-2.99,6.21-5.99,11.13-13.76,8.34-8.84-2.33-17.44-6.06-26.73-4.8-4.9.12-7.55,4.42-5.8,8.89,1.31,4.56,6.63,5.88,8.51,9.93,2.35,9.61-12.06,10.16-11.51,21.16-.42,3.61-2.09,7.17-1.99,10.62.02,1.94.52,3.86.63,5.8.35,3.95-2.35,4.88-5.67,4.22-3.1-.33-6.35.06-9.21,1.33-7.36,4.24-8.71,6.36-17.33,2.86-4.68-1.77-9.39-1.34-14.19-1.28-3.21-.06-6.41-.6-9.55-.1-4.41.77-8.77,2.04-12.93,3.74-2.62,1.07-5.94,2.63-8.62,1.18-4.39-3.13-8.79-6.95-14.3-8.66-3.95-1.27-4.6-5.29-6.12-8.77-1.35-3.75-3.97-6.6-6.95-9.13-2.54-2.29-4.2-5.42-6.4-8.18-3.85-4.33-7.84-8.88-12.57-12.26-5.32-3.25-14.13-.29-18.01-6.26-3.52-4.77-2.05-9.77,1.55-13.85,5.13-7.47,9.05-15.24,4.43-23.92-1.47-3.87.21-9.2.03-12.9-.29-5.38-4.41-7.53-4.74-14.76-.71-6.86,3.46-13.22,1.52-19.93-2.6-7.76-7.67-7.54-8.32-17.26-.29-1.7-.95-3.6-1.85-4.92-3.54-4.31-.81-10-.01-14.84,1.29-5.96-9.53-13.67-14.86-10.95-3.76,2.64-2.49,8.22-4.88,11.85-3.02,5.86-6.8,11.23-10.15,16.93-2.05,3.65-4.61,7.07-8.26,9.25-14.26,8.77-30.64,14.69-47.43,12.8-4.72-.27-7.91.34-11-3.7-9.41-9.13-12.47-22.49-20.03-32.89-2.64-3.84-4.4-8.42-5.61-12.92-1.04-5.59-3.07-10.24-9.58-10.14-7.07.59-20.61-4.25-22.04,5.33-.44,6.86,5.69,16.05-2,20.85-3.63,2.33-8.88,2.08-11.85,5.26-2.62,3.11-5.98,5.3-9.65,7-2.49,1.35-4.73,4.34-7.04,4.75-6.85-.01-5.62-12.21-4.6-16.75,9.38-45.68-31.79-23.12-24.19-101.31.7-9.61.76-19.31,1.36-28.95,1.28-10.28,2.21-20.64,2.17-31.02.09-5.62-.09-11.42,1.69-16.82,1.1-3.41,3.24-6.49,4.93-9.52.58-1.02,1.3-2.13,2.29-2.68,2.5-1.13,5.04,2.48,7.74,2.84.25.04.43.01.52-.07.09-.08.08-.22,0-.4-.6-.9-1.37-1.37-2.21-2.06-4.41-3.22-8.33-7.63-12.76-10.92-5.53-3.78-11.7-8.01-11.77-15.44-.85-8.21-.34-16.54-.65-24.84.12-4.38-.95-9.31.46-13.44,1.37-2.36,4.62-2.55,6.57-4.29,3.58-4.42,5.05-5.46,10.95-5.67,4.93.2,10.69-1.62,15.29-.27,4.93,2.94,7.25,3.37,12.18.11,13.07-7.68,25.97-14.8,38.42-23.3,7.15-4.71,14.43-9.51,19.79-16.3,6-7.92,8.73-18.3,15.99-25.49,2.29-2.34,5.52-5.42,8.51-5.48h.16Z"/>
  <path class="cls-2" d="M792.03,1056.11c3.46-2.18,7.28,1.63,7.59,5.28.74,5.14-1.57,10.4.72,15.36,1.71,5.08,3,10.22,3.27,15.51-.03,3.32-.26,6.76-.94,9.89-.56,2.31-.86,4.74.25,6.9,2.4,4.78,6.56,8.83,9.41,13.34,2.26,4.36,6.32,7.11,9.87,10.31,3.61,3.44,6.46,7.52,10.7,10.1,2.57,1.64,4.53,4.39,7.58,4.94,3.07.41,6.25-.91,9.26-1.52,7.47-1.78,14.76-3.09,22.39-3.12,7.9-.29,11.62-.4,12.36,9.07,1.54,9.62,5.82,18.86,11.61,26.7,2.28,3.02,5.14,5.58,7.58,8.47,6.58,7.42,7.34,18.03,5.63,27.55-.64,4.05-1.79,8.08-1.48,12.25,0,3.44,2.74,7.78,1.74,10.44-.71,1.89-3.16,3.09-5.11,3.79-3.89,1.38-7.9,2.39-11.9,3.21-4.68.76-6.35,3.32-6.85,7.78-.79,4.8-4.16,8.64-7.39,12.04-2.18,2.06-4.75,3.8-6.81,6.02-2.61,3.15-6.24,5.04-9.51,7.37-3.06,2.36-4.8,6.37-7.21,9.55-2.72,4.05-7.53,4.38-11.92,5.04-3.52.65-6.8,2.26-10.25,3.29-4,1.05-7.55,2.89-11.57,4-2.84.76-6.01,1.46-7.87,3.91-5.12,7.17,1.53,15.76-7.39,22.05-3.91,3.08-9.63,1.12-13.63,3.15-2.23,1.23-3.99,3.24-6.31,4.33-3.07,1.45-6.61,1.92-9.98,1.87-4.06-.1-8.1-1.54-12.15-1.27-3.71.1-7.18,1.53-10.77,2.3-2.86.64-5.85.39-8.66,1.26-3.36.97-6.13,3.78-9.37,4.9-3.27,1.29-7.32.56-10.55,1.82-4.31,1.63-7.53,7.37-12.66,5.85-4.97-2.08-7.19-10.46-6.82-15.38.12-1.86.42-3.76.18-5.62-.38-3.36-2.67-6.1-4.96-8.44-3.64-3.66-7.29-7.23-11.48-10.35-3.38-2.77-7.54-4.72-10.42-8.04-3.19-3.94-1.78-9.52-3.55-14.03-1.7-4.48-5.24-7.86-8.04-11.63-5.16-5.79-12.17-9.65-17.65-15.19-3.25-3.45-5.92-6.87-7.02-11.73-1.15-5.94-4.75-5.9-9.82-6.13-6.19-.05-11.82-2.47-17.97-3.35-8.75-.9-7.07-8.74-6.96-15.29.42-5.59-3.41-10.35-4.07-15.64-.27-2.6.83-5.36-.28-7.83-.6-1.45-1.82-2.68-2.85-3.88-3.53-4.31-6.08-9.48-8.63-14.4-.65-1.49-1.17-3.06-1.73-4.6-1.4-4.39-4.02-8.26-4.79-12.7-.38-3.01,2.23-4.6,4.59-5.8,3.21-1.77,5.91-4.68,7.24-8.07.95-2.55.72-5.63.79-8.58,0-1.87-.03-3.9-1.02-5.52-2.24-3.65-8.92-2.86-9.6-7.99-.46-2.31,1.19-5.15.41-6.51-1.72-2.13-5.45-.57-7.77-.24-6.24,1.43-12.7,2.92-19.07,4.36-2.2.45-4.49.95-6.71.51-10.6-3.21.21-14.48,3.46-19.67,6.41-10.39,8.8-6.97,19.08-9.17,10.68-2.7,20.85-7.54,30.4-12.74,10.7-7.17,11.51-9.46,25.21-10.57,2.41-.27,4.8-.5,7.17-.62,3.49-.26,6.47,0,9.16-2.41,3.41-2.72,5.6-7.48,6.55-11.79.93-2.83,2.87-5.48,4.68-7.99,4.42-6.28,10.93.37,15.61,2.84,2.4,1.42,4.91,2.59,7.61,2.98,2.83.43,5.78.08,8.57.76,2.68.6,4.94,2.26,7.47,3.24,2.87,1.2,6.26,1.12,8.88,2.67,1.61.84,3.16,2.12,5.04,2.16,2.15.1,4.34-1.73,6.53-2.84,1.66-.89,3.46-1.4,5.23-2.01,7.13-2.8,14.24-9.08,22.39-7.08,2.94.73,5.34,2.88,7.99,4.4,2.21,1.3,4.65,2.16,6.85,3.48,3.29,1.94,6.08,4.78,9.94,4.47,4.96-.65,10.34-2.08,14.25-5.08,2.47-1.78,3.76-4.84,6.15-6.64l.14-.09Z"/>
  <path class="cls-2" d="M875.59,963.14c1.25.97,1.6,2.78,1.67,4.41.12,2.51.12,5.01.17,7.49.15,7.78.24,15.37.4,22.81.11,3.45.11,7.09,1.43,10.33,1.23,3.23,3.91,5.55,6.7,7.47,4.19,2.85,8.36,6.22,11.94,9.62,2.01,1.98,4.3,3.74,6.5,5.46,2.05,1.82.32,1.78-1.32.9-2.41-1.12-4.32-3.65-6.52-2.24-.95.68-1.52,1.85-2.13,2.86-1.72,3.13-3.99,6.22-5.03,9.76-2.92,12.35-.66,25.62-2.61,38.06-1.88,12.62-1.52,25.41-2.5,38.14-.27,5.93-.4,11.75-.73,17.74-.12,2.43-.32,5.41-2.07,7.1-1.69,1.63-4.41,1.84-6.74,1.94-2.6.11-5.21.14-7.81.29-6.12.32-12.04,1.71-18.09,3.08-2.86.6-5.93,1.82-8.86,1.33-1.92-.36-3.39-1.74-4.86-2.95-2.42-2.12-5.34-3.61-7.53-5.99-1.81-1.87-3.47-3.91-5.36-5.72-3.97-3.62-8.21-6.44-10.7-11.29-3.07-4.69-7.46-8.77-9.58-13.9-.65-1.82-.26-3.82.17-5.68.66-2.81.85-5.89.99-8.88.05-6.19-1.76-12.19-3.72-18.09-1.84-4.92.88-10.21-.55-15.25-1.7-6.32-7.38-5.95-10.41-.88-3.2,4.72-8.63,6.69-14.01,7.96-1.88.47-3.88.89-5.8.49-3.1-.61-5.75-3.38-8.87-4.95-1.29-.69-2.64-1.27-3.96-1.89-3.72-1.64-6.63-4.91-10.75-5.63-8.88-1.52-16.07,5.94-24.16,8.14-3.79.93-7.21,5.31-11.07,3.7-1.33-.55-2.51-1.48-3.81-2.11-2.5-1.3-5.78-1.23-8.44-2.36-1.76-.68-3.37-1.71-5.11-2.46-3.54-1.67-7.56-1.1-11.33-1.65-2.68-.39-5.14-1.57-7.47-2.96-3.72-1.85-7.41-5.83-11.82-5.47-1.95.28-3.36,1.92-4.43,3.47-2.42,3.27-4.24,6.58-5.05,10.5-1.72,5.41-6.04,10.64-12.17,10.72-5.5.31-11.06.91-16.36,1.64-6.5.48-11.56,4.81-16.68,8.39-7.35,4.8-36.63,19.22-43.3,13.9-.76-.87-.54-2.28.23-3.78,1.35-2.53,3.05-4.86,4.52-7.28,1.16-1.85,2.29-3.7,3.43-5.55,5.68-9.28,12.69-18.05,18.23-27.58,3.29-5.86,5.93-12.71,13.36-13.8,4.16-.79,9.03-1.62,13.43-2.82,3.9-1.02,8.9-1.94,11.39-5.05,1.33-1.61,1.88-3.8,2.24-5.85.84-5.48,2.27-10.79,4.05-16.03,4.57-13.47,8.71-27.04,13.19-40.48,1.28-3.6,1.92-7.68,4.37-10.73,1.67-2.08,4.45-3.42,5.35-5.71,2.23-4.84-6.02-7.13-3.54-11.1,1.74-2.32,5.27-1.84,7.92-1.46,4.66.72,9.36.71,14.07.65,8-.12,15.63-2.62,23.42-4.28,7.17-1.76,14.4-3.16,21.4-5.38,7.93-2.81,15.58-6.35,23.54-9.09,5.58-1.94,10.37-4.24,14.99,1.1,8.81,9.5,19.53,17.2,31.12,23,8.13,3.91,16.15,8.63,25.26,9.59,15.13,1.57,30.25,1.69,45.43,2.63,2.88.13,5.88.21,8.78.42,1.83.14,3.97.22,5.4,1.17l.12.09Z"/>
  <path class="cls-2" d="M509.59,769.42c1.93-.09,3.62,1.15,5.19,2.17,3.15,2.15,6.29,4.36,9.28,6.44,4.36,3.04,8.9,6.2,13.4,9.33,6.69,4.53,12.7,9.28,19.75,12.97,7.97,3.9,15.21,8.09,23.6,10.67,29.35,8.56,58.74,15.78,87.85,24.22,7.42,2.08,15.54,1.93,22.77,4.84,4.46,2.18,7.62,6.46,11.11,9.91,5.42,5.63,11.15,11.08,16.97,16.37,5.6,5.13,11.18,10.16,16.7,15.53,2.08,2.04,4.06,4.23,5.57,6.7,3.4,4.93,3.46,11.38,5.31,16.77,1.71,4.78,6.17,10.84,7.34,15.21.71,3.74-7.52,5.19-10.24,6.46-8.15,2.67-15.94,6.78-24.26,9.24-6.2,1.69-12.55,3.07-18.84,4.58-6.05,1.34-11.9,3.09-17.97,3.89-6.06.54-12.52.55-18.65-.28-2.88-.46-7.85-1.1-8.51,2.64-.24,2.72,3.37,4.3,4.08,7.02,1.11,3.94-3.17,5.81-5.43,8.48-3.03,4.12-3.67,9.5-5.48,14.23-4.78,15.1-9.89,30.11-14.48,45.27-2.34,9.73-.34,14.89-12.27,17.75-6.26,2.12-13.04,2.43-19.29,4.55-3.37,1.38-5.36,4.35-7.06,7.47-2.25,4.29-4.69,8.58-7.48,12.55-5.49,8.04-10.97,16.06-16.06,24.4-3.17,4.34-6.04,12.54-12.09,12.61-7.01-.79-13.6-6.29-18.33-11.17-5.79-6.2-7.31-14.93-9.82-22.77-3.45-12.27-7.96-24.12-8.38-36.92-.55-9.92-.66-19.96,1.41-29.74,1.04-4.8.45-9.87,2.27-14.46.91-2.23.03-4.39-1.86-5.74-2.37-1.9-5.15-3.48-7.33-5.56-1.91-1.79-3.25-4.07-4.79-6.17-4.75-6.57-12.51-10.19-19.67-14.09-5.66-3.1-11.06-6.49-16.53-9.93-2.65-1.73-5.76-3.05-7.94-5.39-2.31-2.51-2-6.15-1.73-9.34.39-4.33.49-8.74.7-13.12.79-8.97.41-20.29,8.29-26.38,3.4-2.51,7.55-3.92,11.32-5.78,3.36-1.58,6.4-3.39,8.8-6.18,2.3-2.48,3.72-5.89,6.23-8.15,2.91-2.41,7.36-2.38,9.09-6.03,8.27-13.52,2.44-25.96-3.17-39.37-2.84-6.64-5-13.74-8.97-19.8-1.8-2.55-4.64-4.24-6.16-6.92-3.09-5.62-2.61-11.83,2.37-16.29,2.95-3.13,5.74-6.51,8.73-9.71,1.21-1.31,2.72-2.77,4.49-2.96h.15Z"/>
  <path class="cls-2" d="M549.09,1125.87c.56-.08,1.15.01,1.79.2,2.11.8,4.64,1.58,7.05,1.18,8.5-1.35,16.93-4.01,25.34-5.57,1.7-.23,4.13-.9,5.29.67.83,1.42-1.44,4.92-.53,7.29,2.58,6.85,11.42,2.16,10.59,12.85-.15,3.43.34,6.65-1.12,9.52-1.39,2.68-3.58,5.3-6.42,6.89-2.34,1.3-5.62,2.39-5.24,5.66.08,1.28.5,2.39.92,3.51,2.55,5.32,4.16,10.89,6.67,16.18,2.55,4.17,4.53,8.99,7.75,12.59,3.92,3.76,3.59,5.47,3,10.53-.11,5.1,3.88,9.35,4.09,14.46.72,5.88-2.78,15.89,5.56,17.33,5.02.5,9.76,2.34,14.67,3.17,2.74.38,5.54.47,8.3.67,3.93.03,5.75,2.08,6.35,5.9.58,2.58,1.59,5.01,3.16,7.13,4.38,6.26,10.87,10.37,16.62,15.24,1.63,1.24,3.47,2.69,3.87,4.77.66,4.89-5.05,7.57-8.21,10.33-2.66,2.18-4.76,4.92-7.48,7.11-1.98,1.65-4.08,3.18-5.82,5.1-5.07,5.95-9.53,12.29-12.27,19.66-1.17,3.17-2.12,6.5-4.78,8.81-4.14,4.03-9.85,1.19-14.81,2.67-8.66,1.9-15.02,10.23-18.51,17.96-1.08,2.49-2.09,5.03-3.48,7.37-5.44,9.6-11.11,7.44-20.37,6.08-2.53-.33-5.46-.11-7.57-1.74-1.76-1.42-2.07-3.92-2.84-5.95-.97-2.84-3.29-4.89-5.53-6.98-2.56-2.84-9.24-7.47-8.24-11.62.45-1.62,2.51-2.83,2.93-4.13.25-.72.09-1.37-.28-2.15-.76-1.48-2.1-3.15-2.59-4.94-.73-2.38-.81-4.95-1.22-7.4-.87-5.3-3.34-11.23-7.97-13.95-1.89-1.16-4.11-1.93-5.79-3.39-3.85-3.47-3.54-7.92-.66-11.88,1.84-3.09-.34-6.85-1.44-10.19-1.49-3.19-2.06-9.31-6.01-10.15-1.33-.17-2.71.38-4.02.63-3.31.59-9.02-.17-11.17-2.8-2.17-3.11-1.37-7.6-3.92-10.52-1.8-2.22-4.86-3.04-7.06-4.79-4.58-3.31-4.53-9.41-4.26-14.52-.06-3.07-2.75-6.42-.38-9.17,2.25-3.06,7.65-2.5,10.14-4.12,1.31-.91,1.46-2.55.84-4.51-1.13-3.74-4.68-8.66-7.24-12.3-17.85-26.57-37.54-52.05-48.32-82.57-1.75-4.75-3.51-9.51-4.88-14.37-2.04-6.65,1.02-9.71,7.52-11.32,5.19-1.24,10.09-5.12,15.48-3.44,7.97,2.19,13.95,8.68,20.25,14,2.1,1.79,4.26,3.59,6.11,5.66,6.34,7.6,8.94,14.1,19.34,16.22,10.06,2.12,21.06,5.97,30.98,1.46,2.24-1.09,3.37-3.72,5.66-4.32l.14-.02Z"/>
  <path class="cls-2" d="M244.81,980.55c5.07-1.14,10.84-.59,15.92-1.47,2.28-.49,5.03-1.9,7.25-.67,4.48,3.78-2.22,9.43,10.37,19.95,3.58,3.62,8.53,5.66,11.77,9.56,1.54,2.06,1.9,4.93,2.49,7.65.41,2.24,1.8,5.3,4.06,5.66,1.63.32,2.68-1.16,2.99-2.6.96-7.54.4-8.41,6.69-13.59,1.2-1.17,1.82-2.47,2.04-4.05.38-2.89-.03-9.13,4.45-7.89,2.98,1.06,5.37,4.82,8.91,3.26,3.89-1.42,4.61-5.97,5.82-9.43,3.4-9.95,10.16-6.8,16.79-11.7,2.97-2.49,6.3-4.12,10.24-4.89,2.97-.7,6.05-1.08,8.93-.2,2.78.71,4.9,2.93,7.66,3.65,2.36.64,5-.26,7.38-.33,6.45.05,6.65,10.19,11.09,12.59,2.36,1.44,5.71.47,8.51-.85,1.11-.41,2.66-1.56,3.63-1.06.13.17.14.47.05.9-.32,1.35-.93,2.81-1.07,4.23-.36,2.72.96,5.72,3.15,6.69,3.03,1.27,6.28-.84,9.43-.49,3.37.13,6.67,2.04,9.98,1.93,3.05,0,5.67-2.16,8.68-2.76,7.48-.71,8.12-2.45,10.32-9.37,5.04-14.31,16.87-24.95,23.32-38.52,2.28-5.04,3.37-10.45,10.31-6.33,8.02,4.77,15.95,9.94,24.17,14.3,5.71,3.15,11.72,6.52,15.48,11.88,1.5,2.07,2.83,4.29,4.68,6.07,2.66,3.23,10.31,5.62,9.59,10.35-.16,1.14-.56,2.27-.88,3.4-.91,3.06-.73,6.32-1.17,9.46-.47,3.63-1.25,7.22-1.7,10.85-1.03,10.41-.58,21.09.73,31.48,2.25,11.65,6.05,22.64,9.25,33.91,3.33,13.54,9.93,21.78,22.69,27.56,7.47,2.77,4.15,6.97.64,11.91-2.91,4.18-5.93,8.49-8.19,13.28-.99,2.07-1.89,4.31-3.38,6.05-2.13,2.52-5.51,3.3-8.65,3.73-6.32,1.03-12.56-.55-18.7-1.91-3.49-.79-7.07-1.44-10.38-2.83-8.08-3.05-11.09-11.83-17.16-17.28-8.42-6.67-16.14-17.23-27.42-17.77-3.45.07-6.59,2.15-9.97,2.97-2.77.77-5.07-.4-3.82-3.32.8-1.95,2.97-3.59,4.22-5.26,3.56-5.16-1.93-7.61-6.73-6.88-2.17.17-4.45.35-5.89-.59-1.39-.83-1.82-2.77-1.01-4.16.96-1.95,4.54-2.79,4-5.34-1.1-2.28-4.3-1.25-6.98-2.03-4.65-1.3-8.88-4.85-10.3-9.42-.79-2.38-1.05-5.11-2.09-7.37-1.09-2.57-3.61-4-5.4-1.6-1.01,1.37-1.41,3.23-2.18,4.76-1.17,2.6-3.39,4.61-5.52,6.65-2.35,2.3-4.8,4.47-7.71,5.8-2.12,1.02-4.37,1.75-6.42,2.9-3.34,1.79-5.87,4.7-8.05,7.75-3.83,5.01-6.6,10.53-11.16,14.8-3.05,2.73-7.61,3.3-10.58,6.16-2.04,1.9-3.21,4.52-4.48,6.96-1.96,3.88-4.53,7.55-8.31,9.49-2.36,1.24-5.11,1.6-7.74,1.22-3.81-.44-7.46-2.59-11.09-1.8-2.88.58-5.13,2.96-5.97,5.73-.66,2.05-.76,4.29-.85,6.45-.17,6.08-.51,12.13-1.11,18.03-.6,4.45-.09,13.12-7.14,9.24-1.33-.58-2.72-1.18-4.15-1.49-3.78-.86-7.08.41-10.31-.89-1.42-.51-2.77-1.29-4.18-1.83-2.6-1.14-5.36-.48-8.07-.1-2.73.38-5.56.11-8.07-1.07-6.52-2.96-11.85-13.16-20.14-9.54-2.28,1.12-4.11,3.2-6.31,4.49-5.58,3.43-12.73.4-18.72.73-2.82.03-5.54,1.49-8.24,2.1-2.85.57-4.33-1.5-5.91-3.79-1.09-1.54-2.26-3.02-3.21-4.63-3.92-6.72-2.24-15.03-2.01-22.41-.06-5.09-1.86-10.6-.92-15.47.85-5.33,6.55-6.9,10.22-9.95,1.36-1.07,2.63-2.28,3.49-3.66,2.81-4.55.43-12.19-4.25-14.72-4.87-2.2-9.52-4.83-14.39-7.01-5.57-2.09-11.07-5.97-15.28-10.02-1.77-2.06-2.72-4.86-4-7.44-2.47-4.3-4.72-12.51,1.32-14.59,2.02-.47,4.19.03,6.25-.06,3.22-.03,6.12-1.67,8.91-3.39,2.59-1.56,5.23-3.15,6.61-5.69,1.38-2.45,1.74-5.41,3.28-7.78.96-1.55,2.31-2.82,3.61-4.09,5.04-4.31,5.5-11.36,6.64-17.34.8-3.15.6-6.55,1.09-9.68.63-3.81,4.49-5.54,8.07-6.09l.19-.03Z"/>
  <path class="cls-2" d="M120.25,608.36c.72-3,3.2-13.08,6.72-12.5,1.74,1.01,3.78,2.52,5.22.18,3.99-6.57,3.72-18.78,12.84-20.55,1.88-.53,3.55-1.7,3.41-3.86-.31-4.07-3.32-7.41-4.62-11.18-1.41-3.47-.78-7.48-1.81-10.96-3.4-8.83-8.66-17.16-7.62-27.1.23-3.46,1.07-7.02,3.15-9.81,1.84-2.73,5.57-3.86,7.21-6.78,2.56-6.72,2.23-13.75,11.28-14.25,9.76-.11,17.09,8.73,23.15,15.48,15.98,16.94,30.09,35.61,47.07,51.45,6.31,5.7,13.34,9.56,21.48,12.8,6.3,2.13,11.88,5.42,17.25,9.24,22.07,14.68,45.93,30.36,67.32,44.55,20.99,13.81,18.62,14.4,43.98,18.56,3.32.46,5.79,2.96,5.26,6.46-.25,5.8-1.75,12.08,1.73,17,3.72,5.45,10.03,7.97,15.47,11.41,5.33,3.14,10.77,6.23,15.99,9.58,23.72,17.89,44.79,39.11,68.34,57.19,6.96,5.65,14.94,12.23,21.39,17.51,2.1,1.9,5.58,3.86,6.37,6.28.38,3.23-3.02,5.25-4.79,7.62-3.69,5.16-10.89,9.19-10.73,16.01,3.54,20.03-9.04-.26-14.04-5.17-3.66-4.74-7.41-6.12-13.14-4.08-26.18,6.61-32.62-.59-52.04-15.35-1.84-1.37-5.21-3.59-7.15-1.88-1.63,1.33-1.97,3.88-2.55,5.84-1.67,7.14-3.8,14.23-5.39,21.33-2.66,8.48,3.46,16.05,4.83,24.02.77,6.04-.44,12.18-.66,18.23-.38,9.69.91,19.31,1.4,29.07.61,5.58-1.16,9.23-7.34,9.74-18.92,3.07-38.21,5.71-57.2,9.07-5.43,1.03-10.85,2.35-16.27,3.45-4.25.68-9.14,2.49-13.33,1.12-2.73-1.07-4.14-3.91-5.38-6.43-5.77-11.84-11.69-23.94-17.29-35.95-3.8-9.21,1.86-9.37-5.07-22.26-1.85-3.7-1.92-9.61-6.51-11.04-2.73-.85-6.54.08-8.22-2.13-1.89-3.51-1.57-7.97-1.58-11.88.11-2.43.58-5.4-1.04-7.41-4.71-4.05-7.44,4.66-8.33,8.41-1.02,3.84-2.19,8.66-4.49,11.67-6.76,8.62-30.16,5.15-40.89,6.87-10.13.64-7.38-7.96-12.6-8.28-2.46.95-4.28,5.74-8.1,4.49-9.19-3.04-6.76-10.79-19.33-9.56-5.89.39-12.53.02-17.89,2.74-2.29,1.49-2.91,4.71-4.76,6.87-1.52,1.84-3.69,3.07-5.21,4.92-3,3.41-3.63,9.06-6.59,12.34-2.39,2.61-6.27,3.74-9.21,6.02-5.4,4.31-8.68,3.29-9.24-4.5-.25-3.55-.47-6.87.48-10.37.5-2.64,2.97-6.28.47-8.52-2.64-1.99-8.18-1.9-9.48-5.93-.78-1.77-.94-3.92-2.3-5.39-1.7-1.89-5.24-2.05-7.89-3.54-3.75-1.9-6.06-5.74-9.24-8.32-2.34-1.96-5.37-2.18-8.28-1.95-3.9.28-7.97.37-11.97.29-9.04.99-15.45-5.54-22.04-10.49-7.23-6.2-14.33-1.75-21.75-4.11-3.03-1.45-4.62-5.15-6.47-8.05-2.45-4.25-5.56-8.27-7.42-12.76-1.56-4.51-5.17-7.68-9.54-9.63-3.5-1.49-2.88-2.98,1.35-3.28,13.07.68,9.63-8.31,20.77-7.78,1.63-.03,3.98-.12,5.11-1.27.91-.84.8-2.09.67-3.26-1.35-4.6,2.97-7.02,6.15-9.73,2.41-1.97,4.06-5.88,6.74-7.09,3.72-2.08,7.25,6.01,8.86,3.01.67-3.54-2.88-6.54-3.66-9.61-.81-4.24-1.17-8.61-3.91-12.18-1.96-2.34-6.77-14.49-1.68-13.06,1.43.68,2.91,3.38,4.35,4.29,2.68,1.67,5.63-1.53,8.39-3.59,2.42-2.26,6.25-1.34,8.36-4,.87-.94,1.64-2.19,1.97-3.37.6-1.99.07-4.01,1.44-5.46.91-1.09,2.3-1.61,3.13-2.8,1.59-2.14.16-5.01.21-7.89.65-12.52,18.13-16.59,26.05-24.3,3.71-3.97,9.19-3.56,14.11-2.97,6.07.66,4.4-6.6,4.63-10.42.03-3.77,1.05-7.45,1.92-10.88l.04-.18Z"/>
  <path class="cls-2" d="M236.89,816.88c4.36-3.48,11.27-2.11,15.5-6.03,6.48-4.95,4.83-20.92,11.76-23.07,3.97.07,3.82,5.35,3.61,8.26,0,3.34-.56,11.39,2.68,13.26,1.84,1.12,5.12.59,7.31,1.46,4.31,1.73,4.36,7.21,6.13,10.91,1.35,3.55,3.55,7.09,3.81,10.84.16,2.09-.28,4.19-.19,6.28.12,3.56,2.04,6.81,3.49,9.99,5.16,10.65,10.09,21.62,15.27,32.27,4,9.8,10.94,6.5,19.12,5.01,6.98-1.48,13.9-3.19,20.93-4.35,17.2-2.87,34.44-5.39,51.56-8.24,3.75-.45,7.19-2.46,7.18-6.6,0-8.13-1.04-16.11-1.35-24.15-.71-8.7,1.24-17.29.74-25.96-2.07-12.47-8.4-15.69-3.86-29.96,1.43-5.68,2.91-11.23,4.27-17,.76-3.37,2.14-8.33,6.55-6.06,8.1,4.67,14.62,11.8,22.83,16.36,10.06,5.36,22.32,3.69,32.92.91,2.87-.83,6.11-1.17,8.51.77,3.86,3.22,6.81,7.43,9.99,11.25,2.09,2.64,4.12,5.52,7.03,6.99,1.83.97,3.89,1.49,5.69,2.5,2.57,1.39,4.16,3.89,5.34,6.53,4,9.09,7.48,17.97,10.98,27.13,2.11,5.44,3.59,11.36,2.68,17.2-.9,4.46-2.38,9.63-5.56,13.13-1.94,1.83-5.08,2.15-7.25,3.97-3.11,2.71-4.64,6.97-7.79,9.7-4.14,3.94-9.7,5.73-14.87,8.34-5.61,2.54-9.36,7.76-10.37,13.78-1.48,7.16-1.72,14.52-2.02,21.78-.4,6.02-.54,12.18-1.58,18.1-2.46,11.17-10.53,19.98-16.57,29.38-3.2,4.66-6.5,9.3-8.5,14.7-1.38,3.22-1.83,7.53-4.72,9.73-1.85,1.26-4.24,1.1-6.36,1.62-2.97.65-5.65,2.8-8.73,2.72-3.47.02-6.93-2.04-10.37-1.93-2.92-.07-6.02,1.74-8.82.42-3.28-1.61-3.58-6.49-2.2-9.68.14-.43.26-.81.33-1.13.12-.58.19-.99-.32-1.08-.47-.02-.74.13-1.17.27-4.22,1.97-10.03,4.74-12.88-.45-2.65-4.03-3.76-10.28-9.08-10.2-2.29.04-4.71.98-6.97.3-2.66-.76-4.8-2.89-7.5-3.63-5.49-1.48-12.71.47-17.29,3.64-2.9,2.49-6.31,4.08-10.06,4.83-3.43.82-6.27,3.17-7.71,6.38-1.68,3.31-1.82,7.52-4.54,10-5.34,4.57-7.32-1.68-11.94-2.15-4.5.54-2.24,6.76-3.99,9.89-.96,2.3-3.29,3.62-4.96,5.35-.68.72-1.23,1.51-1.64,2.4-1.83,2.88.28,10-3.93,10.6-2.37-.07-4.03-3.23-4.46-5.55-.76-4.91-1.88-8.61-6.24-11.18-6.99-5.09-16.15-11.11-16.33-20.69.05-2.71-.89-6.08-4.13-5.79-1.37.05-2.76.56-4.08.93-2.71.87-5.73.67-9.05.79-4.13.22-8.19-.02-9.13-4.96-.71-2.74-1.06-5.68-.99-8.51.11-4.52,1.72-9.2.72-13.63-1.5-5.96-5.98-9.91-1.87-16.19,5.44-7.89,7.36-14.11,6.96-23.82-.89-9.41-.11-14.78,7.48-21.12,3.08-2.53,4.43-6.14,3.5-10.08-.56-2.95-.8-6.33-2.32-8.66-1.61-2.53-4.81-3.3-7.35-4.61-2.69-1.33-4.42-3.8-5.83-6.5-2.03-3.43-3.08-7.5-4.73-10.99-3.53-5.64-5.92-7.28-4.72-14.73.45-4.17.16-8.52-.46-12.78-.48-3.1-.79-6.83,1.8-9.07l.13-.12Z"/>
  <path class="cls-2" d="M561.31,633.92c.26.56-1.42,3.01-1.36,4.97.06,1.47.57,2.46,1.49,3.64,8.41,8.54,19.44,13.59,29.8,19.57,6.47,3.5,12.93,6.87,19.19,10.75,6.68,3.94,12.98,8.78,20.41,11.25,11.09,3.44,22.22,3.95,30.11,12.98,3.58,3.61,3.51,7.66,1.22,11.93-3.25,6.86-5.22,15.97,3.5,19.48,8.69,4.33,17.88,8.06,26.57,12.31,2.62,1.26,5.35,2.6,8.29,2.68,6.51-.14,12.28-4.41,18.59-5.51,12.75-2.46,25.7-2.54,38.6-3.42,7.33-.31,14.51-1.6,21.8-1.76,3.41-.17,7.38,1.6,10.41,1.35,1.38-.15,2.75-1.02,3.95-2.02,2.37-2,4.89-5.02,8.26-4.29,2.61.5,4.58,2.9,4.83,5.54.43,3.35-1.56,6.45-2.99,9.36-1.78,3.98-1.83,8.77-1.66,13.13.27,3.84,2.26,7.28,4.3,10.53,1.46,2.3,3.24,5.22,2.72,7.88-.42,2.02-2.37,3.02-3.96,4.08-4.9,3.43-7.84,9.31-12.5,13.12-1.32,1.02-2.87,1.82-4.12,2.92-2.8,2.41-3.58,6.54-3.42,10.12.16,2.01.7,3.87.27,5.74-.32,1.44-1.13,2.81-1.93,4.06-2.19,3.36-3.82,7.12-6.62,9.97-2.33,2.49-5.4,4.17-7.87,6.47-2.68,2.47-3.92,6.13-6.71,8.5-4.57,3.89-11.23,5.15-17.19,6.24-4.26.53-9.4,1.14-11.02,5.8-2.32,6.39-3.23,13.71-4.95,20.23-.33,1.42-.86,2.93-2.21,3.27-2.8.01-4.99-3.02-7.05-4.69-5.64-5.16-11.37-10.58-16.66-16.1-9.75-10.48-11.14-12.37-25.62-14.23-12.79-1.84-25.37-6.81-37.75-9.89-11.56-3.11-23.95-6.21-35.65-9.58-9.96-3.06-21.05-5.3-30.94-9.47-6.61-3.02-13.23-6.29-19.64-9.89-7.36-4.5-14.17-9.81-21.31-14.64-13.77-9.5-27.44-19.12-39.99-30.26-10.92-9.12-21.91-17.95-32.7-27.23-15.18-13.13-29.84-27.08-45.68-39.68-6.08-4.43-12.94-8.06-19.29-11.97-11.85-7.07-18.24-10.11-16.08-25.77.72-10.74.29-13.39,12.31-13.98,8.8-1.29,9.01-4.62,18.15-.54,4.26,1.12,7.05-3.74,10.15-5.68,2.57-1.83,5.49-2.46,8.51-3.16,6.82-1.3,12.54-5.27,18.81-8.05,5.31-2.02,7.74-5.1,9.03-10.52,1.15-3.93,2.26-8.22,2.22-12.19,0-1.66-.09-3.31.05-4.97.14-4.91,3.89-8.22,6.92-11.63,2.78-3.69,3.34-8.85,5.88-12.8,2.72-4.6,7.67-8.65,12.47-3.79,15.43,15.3,28.23,34.17,47.92,44.39,3.2,1.92,5.94,4.51,8.11,7.54,2.4,3.2,3.68,7,6.21,9.94,1.65,1.95,3.64,3.61,5.56,5.28,1.7,1.39,3.17,2.93,5.25,3.37,1.99.41,4.32-.99,4.85-.82.06.02.11.05.14.1l.02.04Z"/>
  <path class="cls-2" d="M755.93,474.34c4.6-1.27,6.84,3.59,8.83,6.83,7.18,12.17,2.05,14.82,1.34,26.7-.02,5.65,1.89,13.08,8.11,14.5,2.73.74,6.08.26,7.57,1.75,1.78,1.88.81,4.96.35,7.27-.86,3.5-1.48,6.97-.74,10.51,1.43,8.05,8.18,15.11,7.4,23.57-.67,6.02-3.46,12.76-4.6,18.89-.75,3.41-1.6,7.05-.28,9.94,1.39,3.05,4.21,5.14,6.5,7.49,2.14,2.11,5.92,6.3,5.65,8.95-.68,1.44-3,.27-4.43,0-3.86-1.2-8.44-.41-10.97,2.92-1.97,2.35-2.33,6.03-4.49,8.09-2.98,2.61-5.77,3.39-2.79,7.68,2.19,3.18,4.32,6.39,6.65,9.43,3.68,4.68,8.04,8.84,11.94,13.46,11.37,14.07,23.18,27.84,33.88,42.48,1.86,2.84,3.54,5.79,5.21,8.76,1.03,1.83,2.25,4.42,1.25,6.27-1.7,2.74-5.51,3.23-8.08,4.96-3.84,2.16-7.01,5.67-10.89,7.75-2.74,1.54-5.94,1.93-8.81,3.13-3.8,1.55-6.78,5.25-10,8.08-.98.84-2.1,1.53-3.32,1.82-3.26.65-7.52-1.54-11.26-1.26-11.35.67-22.75,2.12-34.19,2.52-5.55.08-11.12.36-16.61,1.27-3.72.5-7.6.68-11.38,1.63-6.4,1.26-12.52,6.07-19.26,5.16-2.93-.51-5.68-2.04-8.36-3.32-7.95-3.73-16.15-7.08-24.13-10.9-8.53-3.42-8.81-8.74-6.18-16.71,1.04-3.09,3.29-6.14,3.18-9.28-.51-5.28-6.29-9.02-10.33-11.68-8.25-4.72-18.18-4.56-26.66-8.42-10.69-5.16-20.5-12.54-31.12-17.68-8.11-4.65-34.88-17.32-37.08-25.09-.48-3.92,3.39-6.96,5.4-9.96,9.26-12.3,19.66-23.89,29.58-35.68,2.67-3.09,5.29-6.34,7.81-9.54,1.05-1.23,2.21-2.28,3.78-2.56,3.22-.47,7.41,2.46,8.78,5.57,1.01,2.5,0,5.37.69,7.93,1.34,4.87,7.05,3.31,10.84,3.54,3.19.04,6.6,1.37,9.58.45,4.56-1.63,7.06-6.16,8.96-10.54,1.37-2.99,2.39-6.56,5.23-8.49,2.38-1.58,5.81-1.25,8.61-2.53,3.72-1.54,6.73-4.7,6.93-8.91.24-3.79-.12-7.76,1.05-11.37,1.88-5.99,6.01-11.5,10.57-15.74,1.35-1.17,2.81-2.18,4.21-3.28,2.89-2.18,5.3-5.02,8.58-6.6,5.87-2.3,11.57-5.39,17.67-6.81,7.99-1.2,14.15-9.73,10.44-17.46-5.57-8.87-1.27-7.47,3.71-13.74,4.33-7.2,9.12-3.89,14.14-8.21,3.12-2.91,4.42-8.02,7.8-10.64,3.78-3.31,9.06-1.92,13.55-2.87l.17-.03Z"/>
  <path class="cls-2" d="M617.67,291.23c.21-.04.42-.08.62-.13,7.94-1.97,17.23-5.67,24.62-9.79,6.25-3.13,11.86-7.3,17.03-12.05,4.89-4.55,9.95-9.71,16.79-10.84,4.57-.91,10.38.32,14.89-1.08,22.3-8.32,10.35-33.42,47.68-40.69,4.75-.82,6.01,3.69,8.6,6.95,2.84,3.06,6.23,5.45,9.22,8.42,2.46,2.25,5.3,4.26,8.5,4.1h.19c4.99-.65,7.34-1.19,10.55,3.4,3.13,4.06,6.32,8.02,7.84,12.91,1.35,3.67.93,8,2.97,11.39,5.89,6.94,9.83,3.21,12.63,15.22.85,2.75,2.07,5.42,2.95,8.24.83,2.97,2.11,5.77,5.02,7.25,2.29,1.3,4.78,1.99,6.8,3.43,3.8,2.77,5.59,7.2,9,10.99,5.87,6.52,8.51,9.58,8.68,18.76.93,5.83,4.37,11.44,7,16.87,4.55,6.41,5.1,7.49-.78,13.36-2.9,3.06-6.41,5.75-10.54,5.19-2.05-.21-4.21-.88-6.24-.28-1.66.45-3.14,1.59-4.6,2.53-5.58,3.54-12.56,4.38-18.93,5.94-6.1,1-8.78,7.31-12.33,11.73-2.21,3.06-5.9,4.31-9.54,4.62-9.37.62-13.22,2.28-15.27,11-.88,3.14-.15,6.25-.08,9.41-.03,3.7-1.98,7.29-3.18,10.8-1.15,3.25-3.5,6.13-3.57,9.6-.01,2.57,1.35,4.97,2.17,7.37,1.92,5.76,1.93,12.11,2.13,18.16-.14,5.38-3.2,10.2-3.58,15.54.62,10.51-2.1,6.03-9.36,8.34-.94.36-1.83.86-2.63,1.47-3.87,2.83-5.26,9.13-9.29,11.69-3.28,2.14-8.12,1.55-10.8,4.73-1.72,1.88-3.04,4.13-5.09,5.72-1.17,1.06-2.58,2.05-3.06,3.6-.78,2.3,1.81,5.2,2.76,7.8,2.53,6.59-2.06,14.31-8.79,16-6.79,1.59-13.17,4.64-19.61,7.4-3.12,1.53-5.49,4.21-8.28,6.33-4.59,3.31-8.58,7.27-11.59,12.16-1.77,2.76-3.27,5.86-3.81,9.12-.93,4.88.73,9.28-1.89,13.53-2.02,3.23-6.38,5.27-10.18,5.71-3.32.33-5.77,2.35-7.11,5.3-2.43,5.04-4.03,10.44-8.57,13.81-3.81,2.97-8.75.65-13.11.77-3.82.03-8.32.76-9.56-3.43-.8-2.77.41-5.94-1.05-8.56-1.59-2.75-5.51-5.48-8.39-4.98-3.8.91-5.45,5.13-7.99,7.79-2.08,2.55-4.26,5.03-6.39,7.52-7.69,9.09-15.58,18.15-22.94,27.43-2.77,3.45-5.84,6.82-9.63,9.15-2.63,1.53-5.31-.04-7.3-1.86-2.05-1.76-4.3-3.56-6.11-5.46-3.89-4.12-5.5-10.13-9.83-14.04-2.11-2.15-4.68-3.75-7.29-5.22-14.13-7.76-25.12-20.04-35.71-31.92-2.88-3.16-5.95-6.19-8.83-9.35-1.74-1.84-3.88-4.3-3.54-6.87.5-2.8,3.05-4.66,4.65-6.88,2.05-2.56,3.69-5.7,6.39-6.78,2.77-1.21,5.72.31,4.44,3.83-2.3,5.64-5.71,10.83-1.92,16.63,3.46,5.8,9.19,4.6,14.91,4.57,2.17.11,4.29.7,6.46.73,3.36.13,6.5-1.58,9.82-1.64,3.16-.11,6.31.88,9.46.92,3.82.13,7-1.92,10.27-3.76,2.17-1.21,3.98-3.05,4.1-5.69.23-2.73-.87-5.5-1.04-8.22-.63-5.88,5.54-9.29,8.37-13.96,1.86-3.29.01-6.91-.15-10.38-.24-3.51.47-7.92-.09-11.49-.47-5.97-5.08-11.82-2.88-17.79.99-2.27,3.71-3.98,4.61-6.5,1.03-2.87.12-6.05.36-9.01.47-4.81,1.41-9.6.73-14.47-.33-8.12-5.06-15.87-2.62-23.97,1.47-4.29,2.09-8.79,3.15-13.15,1.69-4.39,3.34-8.91,5.75-12.92,2.07-2.67,5.57-4.04,6.83-7.35.71-1.54,1.31-3.18,2.24-4.62,2.07-3.25,5.54-5.6,5.17-9.69-.33-3.24-1.29-6.75.4-9.8,1.74-3.49,4.33-4.92,5.77-8.62,1.47-3.99,2.27-8.53,1.32-12.68-1.02-4.26-4.88-7.39-6.71-11.51-4.09-7.87.91-12.53,6.59-17.6,12.28-9.45,6.13-10.39,6.81-23.04.5-3.47,1.18-7.4,3.21-9.99,2.1-2.44,4.31-4.97,4.3-8.39,0-.04-.63,5.24-.61,5.05.68-6.45,5.6-11.65,11.98-12.81l5.62-1.01Z"/>
  <path class="cls-2" d="M1285.45,27.82c2.41,1.18,4.27,3.62,6.26,5.84,2.26,2.45,4.01,5.2,4.72,8.54,1.25,4.36,2.28,10.63,5.8,13.26,1.92,1.35,4.41,1.48,6.66,1.94,4.74.83,8.96,3.03,13.73,3.21,4.94-.07,9.69,1.25,14.23,2.9,3.39.69,5.81,3.12,6.39,6.59,1.59,6.02,2.42,11.69-1.24,16.8-3.52,4.59-7.92,8.92-9.91,14.29-1.05,2.72-1.39,5.75-2.27,8.65-.7,2.52-1.83,5.08-1.57,7.74.52,4.57,4.9,7.52,6.36,11.77,1.79,4.29,2.11,9.3,4.34,13.39,6.99,9.74,3.39,19.2,1.12,29.83-.72,2.51-2.02,4.95-2.33,7.56-.46,3.17.56,6.45,1.13,9.64.78,2.94-.92,6.17.58,8.9,1.18,2.03,4.29,2.96,5.59,4.95,2.39,3.76-.51,8.94-3.79,11.32-10.36,7.01-22.41,11.03-33.46,16.57-5.33,4.12,9.66,6.27,11.92,5.35,2.59-.54,4.97-2.44,7.08-2.14,4.11.58,8.33,10.57,8.15,14.07-.31,5.44-4.36,10.23-4.62,15.72-.18,3.65,2.15,7.32,3.66,11.15,1,2.37,1.86,4.92,3.6,6.85,2.16,2.49,5.67,3.08,8.79,3.47,4.09.6,8.28,1.19,12.36.13,5.26-1.57,10.48.73,15.82.99,4.89.08,9.98,0,14.47,1.55,5.5,1.42,7.11,7.75,11.48,10.66,2.21,1.45,4.12,1.27,5.49,3.21,1.88,2.97,3.23,6.97,2.27,10.42-.63,1.96-2.58,3.56-2.69,5.78-.21,3.32,3,5.66,3.98,8.63,2.35,7.02.9,14.27-.01,21.4-.17,1.83-.38,3.68-.87,5.45-1.2,5.17-4.96,9.02-9.15,12.03-2.95,2.36-5.25,5.37-8.41,7.47-7.2,4.19-7.79,5.91-9.23,13.82-.95,3.95-3.84,7.28-4.97,11.07-2.53,8,7.65,10.5,3.51,13.35-3.53,2.04-7.94,2.46-11.39,4.42-2.8,1.41-4.89,3.94-7.31,5.9-1.98,1.65-4.47,2.54-6.85,3.57-2.81,1.22-5.43,3.23-8.36,3.31-5.14-.39-10.36-2.7-15.1-4.8-7.52-4.21-14.89-9.67-23.95-9.69-4.4-.18-8.26,2.02-12.61,2.97-6.2,1.19-11.73,3.59-17.56,6.24-8.97,3.48-17.66,7.55-26.45,11.62-4.71,2.35-9.83-.63-14.68,1.19-13.95,4.4-10.39,10.15-28.26,7.27-5.17-.64-7.45-5.16-10.95-8.5-1.56-1.37-3.39-2.51-5.08-3.73-4.3-2.97-7.41-7.15-11.12-10.78-14.12-11.48-23.61-27.34-34.45-41.66-2.67-3.12-6.36-5.09-9.62-7.51-3.41-2.48-6.1-5.78-9.18-8.67-2.27-2.06-4.72-4.89-3.1-8.11,1.04-2.28,3.05-4.05,4.6-6,5.18-6.23,5.08-15.02,8.37-22.2,1.32-3.09,3.05-6.07,3.75-9.39.63-2.63.45-5.5,1.5-7.7.94-2.05,2.95-3.24,4.72-4.52,2.34-1.6,4.21-3.91,5.88-6.32,2.39-2.83,3.4-6.37,5.43-9.29,3.1-2.46,5.19,5.3,6.52,8.65,1.12,3.66,5.76,13.09,10.22,9.36,2.53-3.75,1.19-9.09,2.28-13.35,3.64-12.33,1.26-17.75-2.48-29.41-2.33-8.11-1.61-16.69-1.9-25.14-.11-3.81-.86-7.59-2.64-10.98-1.72-3.34-3.9-6.51-5.27-10.02-3.76-8.69-2.52-18.59-4.66-27.64-1.54-6.57-6.08-11.97-7.86-18.46-1.48-4.99-1.28-10.29-1.12-15.57.08-6.65.99-13.21,2.67-19.67,1.52-6.6,3.55-13.07,4.58-19.78.67-6.65,2.04-13.67,4.09-20.26,1.02-4.08,1.21-8.16.2-12.23-.59-2.82-2.34-6.39-1.66-9.08,1.27-3.89,5.51-5.75,8.24-8.64,14.81-12.66,21.99,3.04,40.12-4.89,7.25-1.81,9.44-5.65,13.68-11.19,1.48-1.75,3.1-3.38,4.49-5.2,1.81-2.29,3.27-5.21,5.7-6.77,4.93-2.8,11.34-.57,16.05-4.26,4.72-3.55,10.28-5.52,15.91-7.1,4.14-1.26,8.78-1.39,13.31-1.28,2.08.06,4.29.25,6.16,1.13l.16.08Z"/>
  <path class="cls-2" d="M1160.75,73.49c6.55,13,5.32,18.62,1.43,31.83-.95,4.77-1.19,9.68-2.13,14.45-1.09,5.52-2.64,11.04-3.93,16.57-2.7,10.91-3.71,22.56-2.25,33.7,1.31,7.17,6.14,13.08,8.16,20,2.55,10.5.81,22.12,6.23,31.95,1.95,3.97,4.65,7.67,5.68,12.02,2.05,11.12-.59,23.19,3.3,33.8,1.77,5.58,3.92,11.29,3.65,17.23-.18,4.63-2.03,9.17-2.31,13.84-.17,4.64-.46,15.52-7.46,8.58-4.06-4.31-4.63-10.26-7.28-15.22-3.14-4.71-4.71.06-6.26,3.35-.85,1.59-1.9,3.09-2.93,4.58-1.11,1.58-2.24,3.11-3.55,4.38-2.04,2.08-4.93,3.26-6.37,5.49-1.51,2.27-1.18,5.59-1.87,8.55-.72,3.46-2.52,6.55-3.84,9.79-2.98,6.73-3.11,14.78-7.27,20.97-5.01,6.28-9.1,12.3-15.94,3.42-2.73-3.37-4.52-6.45-5.71-10.44-.8-2.61-1.54-5.53-3.2-7.73-2.56-3.46-6.76-4.04-9.78-7.13-5.75-6.43-5.47-16.63-11.79-22.73-6.37-5.95-13.18-11.36-20.39-16.3-3-1.83-5.64-4.21-7.65-7.13-1.75-2.57-3.51-4.29-6.52-5.55-1.42-.67-2.74-1.3-4.13-2.18-7.11-5.5-8.45-4.97-16.98-3.49-8.02.92-13.01-3.73-18.44-8.72-7.58-5.8-4.43-16.39-3.14-24.4,1.46-9.95,3.67-19.95,6.07-29.74.81-4.08,3.23-2.79,5.47-4.86,1.33-1.91.07-4.46-.43-6.5-.81-2.65-.95-5.44-1.04-8.42-.2-4.12-.18-8.16,2.23-11.41,2.11-3.11,5.21-5.53,7.15-8.75,4.73-8.09-2.93-16.7-7.55-22.96-2.77-3.35-5.83-6.44-7.74-10.32-1.39-2.74-2.29-5.69-3.26-8.6-5.9-18.82-12.28-9.61-19.04-16.88-1.56-2.59-.35-5.74-.37-8.56.08-2.85-1.01-5.63-1.03-8.49.09-5.26,2.73-10.45,2.48-15.85.15-4.56-1.49-8.85-2.54-13.21-1.41-7.81.59-15.93,2.27-23.58.53-5.55,3.4-10.19,6.5-14.73,1.5-2.33,3.08-4.76,5.33-6.42,3.14-2.6,8.04-1.49,11.04-4,2.83-2.45,2.94-7.13,5.45-9.91,2.85-3.07,8.96-3.84,13.22-3.01,3.29.97,5.72,3.69,8.73,5.23,3.32,1.85,7.13,1.89,10.94,2.34,1.97.19,4,.2,5.9-.4,3.81-1.1,6.53-4.4,9.34-3.57,2.09.61,3.59,2.76,4.67,4.67,3.15,5.43,3.18,12.07,4.3,18.19,1.87,7.07,4.24,14.95,10.37,19.48,5.31,4.2,20.57-3.88,25.49-7.46,4.4-3.19,9.21-9.4,15.22-6.95,2.29,1.13,2.63,4.33,4.31,6.55,13.71,16.42,20-12.84,24.65,9.39.76,3.51,1.39,6.35,1.55,9.43,0,5.34.2,10.83,2.9,15.61l.08.18Z"/>
  <path class="cls-2" d="M924.19,112.27c.44-1.41,2.03-2.51,3.24-3.42,3.89-3.05,7.06-6.89,10.87-10.05,5.17-4.89,8.62-9.73,16.33-10.77,3.32-.93,6.75.46,10.02-.06,2.21-.46,3.83-2.34,5.74-3.44,3.24-2,7.33-1.83,11.28-1.12,7.15,1.36,7.04,4.51,7.88,11.02.63,2.82.91,5.51.44,8.41-2.09,13.34,12.74,3.82,17.74,16.85,1.85,3.66,2.71,7.91,4.36,11.81,1.43,3.53,3.71,6.56,6.22,9.38,4.17,4.66,8.04,9.62,10.57,15.42,5.96,13.02-11.32,15.3-9.88,28.24.12,3.56.11,7.18,1.08,10.53.47,1.89,1.47,4.15.69,6.03-.77,1.81-3.6,1.62-4.72,3.03-.51.61-.76,1.38-.96,2.14-1.47,6.89-3.68,13.63-4.6,20.64-.84,5.02-1.69,9.84-2.62,14.94-.8,4.86-1.48,10.24.9,14.75,1.51,2.77,4.37,4.46,6.66,6.62,2.89,2.88,6.48,5.1,10.59,5.65,4.73,1.06,9.62-1.51,14.25-.69,3.79.82,6.48,4.26,10.17,5.76,2.36,1.13,4.89,2.32,6.57,4.34,1.43,1.66,2.59,3.6,4.39,5.28,1.63,1.57,3.59,2.86,5.48,4.11,6.67,4.56,13.17,9.67,19.24,15.16,4.23,3.91,6.2,9.28,7.97,14.71,1.29,3.96,3.14,8.26,6.94,10.35,15.52,7.26,5.29,14.88,21.56,28.29,2.13,1.78,4.38,3.41,6.52,5.18,3.93,3.14,7.05,7.36,11.08,10.38,4.89,3.39,10.01,6.65,13.05,11.94,2.05,3.21,5.42,7.41,3.84,10.41-2.94,4.57-8.91,6.8-12.11,11.28-3.27,4.01-4.77,9.55-7.7,13.97-3.29,4.96-8,8.71-12.41,12.61-2.08,1.91-4.98,2.79-6.85,4.76-1.35,1.52-1.7,3.67-2.75,5.5-2.69,4.33-5.86,8.55-9.61,11.86-5.86,4.6-12.45,8.34-18.53,12.55-8.31,5.4-7.42.49-8.25-7.03-.4-2.78-2.63-4.38-5.25-4.91-7.47-1.98-14.41,1.37-21.5,3.2-4.02,1.61-6.34-.22-9.42-2.73-5.62-3.46-10.22-8.13-16.16-11.14-3.59-1.72-7.36-2.02-10.67-4.04-5.28-2.94-11.87-3.35-16.62-7.11-3.01-2.72-5.04-6.77-7.92-9.77-3.75-5.09-5.6-12.77-5.11-19.06.32-2.75,1.14-6.64-1.35-8.45-2.7-1.97-6.48-1.56-9.57-2.6-3.75-1.01-6.81-3.86-10.59-5.04-4.47-1.14-9.4-1.7-12.34-5.73-3.43-4-6.59-8.31-10.51-11.91-2.9-2.94-7.14-4.03-10.04-6.9-2.92-2.96-3.14-8.49-7.46-9.8-1.98-.66-4.38-.73-6.4-1.72-3.73-1.97-6.96-4.93-10.34-7.36-2.3-1.84-4.56-3.81-7.05-5.55-2.54-1.8-5.36-3.76-6.34-6.84-1.27-4.35.67-9.45,1.81-13.84,1.14-3.5,2.75-6.67.56-9.59-1.7-2.4-4.43-3.99-6.04-6.46-1.94-2.85-2.72-6.52-1.2-9.72,5.8-9.86,4.15-13.03.32-23.14-1.14-5.84-4.91-10.1-8.37-14.7-2.72-3.68-3.84-8.14-5.87-12.2-5.69-9.38-2.69-14.51,6.86-18.91,7.58-4.17,14.11-10.72,17.95-18.52,2.03-3.78,3.85-7.96,7.04-10.89,2.75-2.46,6.78-3.1,10.21-4.63,5.9-2.38,13.31-6.43,13.12-13.67-.3-4.35-.85-8.67-.56-13.07.03-5.45,1-10.88.02-16.26-.9-3.96-.62-8.07-1.56-12.01-.5-1.98-1.22-3.91-1.56-5.92-.59-3.35-.21-6.9-1.35-10.14-.57-1.99-1.94-4.03-1.48-6.09l.04-.14Z"/>
  <path class="cls-2" d="M856.28,355.65c.01-2.04,1.73-3.83,3-5.49,2.67-4,6.48-6.45,11.05-8.1,3.75-1.65,7.54-3.24,10.54-5.78,1.76-1.46,3.42-3.2,5.42-4.35,4.87-3.2,8.87,1.17,12.53,4.02,4.97,3.63,9.75,7.48,14.61,11.33,1.24.96,2.55,1.93,3.96,2.61,3.58,1.74,8.55,1.03,10.45,5.24,1.02,1.83,1.69,3.92,2.97,5.61,2.1,2.9,5.96,4.01,8.88,6.29,4.67,3.55,8.14,8.46,11.87,13.01,3.16,4.48,8.24,4.99,13.08,6.35,3.68,1.22,6.58,3.94,10.22,4.93,3.1,1.02,7.05.6,9.69,2.7,2.47,2.1,1.39,6.21,1.19,9.17-.29,3.3.34,6.57,1.24,9.81,1.01,4.87,3.69,8.63,6.88,12.22,1.86,2.42,3.29,5.18,5.74,6.8,4.25,2.93,9.92,3.62,14.51,5.92,3.8,2.25,8.16,2.97,12.12,4.84,6.33,3.32,11.23,8.14,17.13,11.99,1.32,1.01,2.85,2.23,4.45,2.38,1.21.14,2.49-.24,3.67-.59,3.87-1.19,7.84-2.2,11.74-3.33,5.16-1.06,14.66-1.09,15.11,6,.35,5.17.07,10.83,6.38,7.15,5.8-3.58,11.55-7.71,17.35-11.48,4.76-3.32,8.31-7.86,11.58-12.72,2.09-3.3,2.59-7.3,6.52-9.07,4.5-2.63,8.5-6.63,12.24-10.3,5.5-5.32,7.33-13.1,11.79-19.1,1.9-2.38,4.25-4.36,6.69-6.17,2.17-1.54,4.56-3.54,7.26-3.53,4.04.35,6.1,5.05,8.45,7.87,6.38,9.34,15.48,15.72,22.66,24.26,2.56,2.81,5.81,4.82,8.83,7.05,3.31,2.27,5.02,6.16,8.35,8.35,2.58,1.65,5.83,1.77,9.01,1.98,3.15.21,6.34.5,9.12-.7,1.9-.77,3.57-2.02,5.29-3.13,3.84-2.4,12.58-6.99,15.48-3.07,1.69,3.06,1.04,6.93,1.26,10.31.13,7.09.38,14.43.49,21.7-.04,3.35.96,7.45-.58,10.51-.88,1.42-2.29.83-2.9-.45-1.44-2.66-.51-6.61-3.06-8.34-.95-.67-2.41-.65-3.37.01-4.9,4.85,2.01,9.55-8.84,15.2-2.23,1.37-4.71,2.21-7.29,2.53-5.49.98-11.88,1.8-15.18,6.82-1.55,2.15-3.36,4.26-4.37,6.68-1.41,4.57-2.05,9.2-7.75,9.52-8.97-.96-12.14-.85-20.39,3.28-1.67.67-3.02,1.27-4.63.97-1.45-.28-2.52-1.93-3.79-3.06-2.37-2.46-4.62.38-5.83,2.61-3.27,5.44-6.3,18.12-11.89,20.22-5.01,1.01-10.44-.2-15.29-1.2-3.86-.72-6.23,2.27-8.16,5.02-4.47,4.5-5.23,10.29-7.29,16.25-.69,1.92-1.58,3.89-3.19,5.19-2.1,1.77-5.38,1.4-7.61,3.03-2.39,1.71-2.85,5.01-4.46,7.74-1.54,2.72-3.64,5.06-5.59,7.5-9.07,10.8-15.55,23.67-26.15,32.93-3.29,2.85-6.66,5.63-9.94,8.48-3.35,2.54-6.01,6.06-9.72,7.99-2.64,1.07-5.3-1.43-8.46-.97-3.03.28-5.57,2.57-8.34,3.49-2.82.97-3.69-2.11-4.1-4.5-.54-2.74-1.89-5.21-3.12-7.8-3.05-7.53-8.12-9.88-15.59-6.87-2.75.95-5.58,1.19-8.13,2.62-3.07,1.69-6.32,5.16-9.94,2.8-4.16-2.78-7.75-7.08-7.73-12.29-.11-4.92-.91-9.97-2.89-14.46-1.46-4.21-5.87-5.72-8.72-8.77-1.36-1.5-2.48-3.19-3.83-4.71-2.15-2.45-4.81-4.84-5.91-7.87-.98-2.46-.79-5.24-1.64-7.72-1.94-5.4-8.79-4.96-13.48-4.44-3.68.52-7.45.8-10.87,2.12-1.72.64-3.43,1.46-5.27,1.65-2.81.29-5.83-.89-8.72-.41-4.74.87-9.38,2.52-13.64-.86-3.09-1.89-6.77-2.6-10.07-4.03-8.66-3.68-15.91-11.49-18.47-20.61-1.3-6.21-1.99-12.9,5.14-13.86,2.51-.47,5.34-.6,7.79-1.4,5.22-1.77,10.62-5.73,10.26-11.41-1.23-10.63-6.17-20.84-6.18-31.59.01-4.28,1.39-8.39,2.63-12.43,1.51-5.37,1.52-11.19.95-16.7-.98-10.84-14-9.81-16.47-19.45-1.03-3.13-2.31-6.25-3.19-9.43-1.42-5.61-2.29-11.41-4.9-16.66-4.65-8.08-6.62-11.19-5.34-21.09.16-2.77,1.08-5.64,1.79-8.22.26-1.08.29-2.03-.07-2.66-1.02-1.64-3.69-.69-5.41-.29-2.78.69-6.28.91-8.29-1.46-1.37-1.66-.66-4.31-1.58-6.92-.51-1.68-1.58-3.27-1.72-5.01v-.15Z"/>
  <path class="cls-2" d="M1245.14,437.41c.73-.94,1.77-1.69,2.93-2.36,5.62-3.17,12.07-5.64,17.91-8.41,5.06-2.48,10.44-4.21,15.49-6.66,1.78-.85,3.58-1.69,5.46-2.3,4.63-1.34,10.18-2.31,14.72-4.2,10.82-2.92,20.46,4.56,29.44,9.55,3.19,1.6,6.54,2.48,9.83,3.66,3.79,1.61,7.15.76,10.36-1.43,2.35-1.4,5.08-2.11,7.39-3.45,2.65-1.52,4.48-4.12,6.9-5.94,2.4-1.89,5.41-2.75,8.56-3.74,2.94-.92,5.82-1.94,8.74-1.99,3.13-.07,6.22.61,9.35.59,3.88.12,7.57-.92,11.41-.44,4.25.45,8.73,3.73,12.96,5.15,2.37.73,4.82,1.29,6.54,3.21,1.85,2.05,4.43,5,5.24,7.18,1.05,3.75-.71,8-.44,11.9.19,5.91,2.52,11.84,2.38,17.74.02,5.27-4.05,10.82-.8,15.8,1.19,1.99,2.95,3.67,3.69,5.75,1.04,2.77.56,5.91.16,8.81-.55,5.25-2.76,10.15-5.52,14.61-2.86,4.26-5.96,8.38-8.75,12.7-1.97,2.72-2.47,6.26-.77,9.24,2.5,6.42,22.02,18.17,11.17,24.08-4.46,2.35-10.81,2.3-14.83,5.03-2.31,1.8-3.44,4.69-4.96,7.14-3.14,5.18-5.87,10.48-7.46,16.41-.84,3.08-1.38,6.18-1.92,9.33-.55,3.7-1.61,8.81-6.3,8.55-5.09-.57-9.6,2.14-14.6,3.01-3.56.75-7.27.94-10.7,2.17-2.85,1.01-5.39,3.1-8.38,3.7-2.34.64-5.37.28-7.44,1.52-.9.77.52,1.03,1.27,1.16,5.24.35,11.78,1.25,15.35,5.34,1.55,2.28,1.38,5.12,1.42,7.88-.03,2.8-.09,5.55-.73,8.28-1.45,5.82-5.17,11.12-5.59,17.29-.5,5.85-2.51,10.94-8.36,13.26-3.28,1.49-6.26,3.47-9.38,5.25-4.9,2.7-10.06,4.8-15.37,6.57-3.1,1.26-6.17,3.25-9.67,2.75-6.28-.81-11.05-6.01-17.55-6.04-5.97-.8-11.04-2.34-17.1-3.05-3.99-.67-7.47-.79-10.87-1.78-2.71-.87-3.27-2.34-3.5-6.23-.17-2.57-.16-5.88-.35-8.95-.32-5.46-.75-10.14-1.32-15.52-.79-7.33-2.58-14.48-6.67-20.62-6.38-10.15-13.52-19.81-19.41-30.23-4.21-7.46-3.85-16.16-5.93-24.26-3.83-14.67-6.34-23.31,4.01-35.98,5.77-7.61,6.52-16.35,3.8-25.41-3.76-13.32-2.36-27.37-3.15-41.08-.04-2.86-.13-5.69-.15-8.55,0-2.03.15-4.23,1.35-5.83l.1-.14Z"/>
  <path class="cls-2" d="M1049.62,628.27c1.78-5.1,7.14-7.95,10.84-11.63,4.58-4.09,9.55-7.83,13.7-12.38,5.41-6.03,9.71-13.2,14.52-19.7,3.66-5.25,8.21-9.9,11.61-15.32,1.61-2.67,1.89-5.97,4.2-7.65,2.25-1.61,6.27-1.16,8.36-3.45,3.36-4.1,3.86-10.16,5.72-14.83.6-1.81,1.76-3.23,2.98-4.63,1.55-1.68,2.56-4.02,4.42-5.44,3.26-2.47,7.29-.02,10.9.24,3.02.05,6.27.78,9.23.02,2.7-.86,4.14-4.29,5.66-7.06,1.8-3.3,3.04-6.72,4.73-10.57,1.23-2.28,3.08-7.49,6.27-6.01,1.63,1.09,3.1,3.98,5.59,3.79,1.58,0,3.09-.65,4.53-1.28,3.53-1.59,7.09-3.21,10.96-3.53,5.34-.17,12.68,2.75,14.86-4.29.32-1.07.5-2.2.81-3.28.77-2.92,2.93-5.3,4.69-7.77,1.56-2.27,3.68-4.14,6.37-4.9,4.59-1.85,9.75-1.57,14.25-3.55,3.11-1.78,7.18-3.65,8.18-7.05.94-2.71-.13-6.28,1.7-8.59,1.65-2.04,4.98-1.06,5.69,1.44.72,1.94.59,4.55,1.38,6.5.9,2.37,2.77,4.1,3.81,6.44,2.1,5.49,3.64,11.53,4.06,17.35.9,11.24-6.66,16.75-10.95,25.82-3.97,9.62.06,19.69,2.28,29.69.81,3.41,1.11,6.86,1.61,10.31,1.1,7.84,5.45,14.61,9.75,21.15,5.37,8.79,12.11,17.04,16.48,26.38,2.58,5.85,3.3,12.3,3.85,18.61.64,8.41,1.85,17.03.96,25.45-.81,6.03-3.53,11.58-5.96,17.09-2.39,5.35-4.74,10.68-7.13,16.08-3.15,7.11-6.31,14.2-9.54,21.23-1.34,3.16-3.46,6.22-7.37,5.25-5.81-1.44-11.66-2.73-17.48-3.52-5.2-.51-10.92-.92-16.06-2.7-5.5-1.62-11.81-1.68-16.87-4.51-6.86-4.38-12.1-10.94-18.25-16.25-4.97-4.68-10.03-9.34-15.01-14.16-3.37-3.17-6.7-6.43-10.42-9.17-3.46-2.52-7.34-4.4-11.22-6.55-10.4-6.06-12.05-7.99-24.54-6.95-4.79.37-9.55,1.89-13.96,3.91-6.51,3.09-10.95,10.39-18.46,11.42-3.75.55-7.48-.6-10.99-1.8-5.84-2.35-12.31-3.67-17.7-7.03-2.55-1.86-3.06-5.08-3.15-8.06-.18-5.13-.27-10.08-.47-15.2-.04-3.04-.26-6.23.56-9.18l.05-.18Z"/>
  <path class="cls-2" d="M1273.94,660.08c2.65-1.42,6.02-.61,8.9-.34,4.7.52,9.5,1.25,14.29,2.37,3.98,1.11,8.18,1.13,12.12,2.22,2.82.91,5.25,2.78,8.2,3.93,6.68,3.21,10.63-.37,16.79-2.51,5.99-1.97,11.5-4.78,16.82-8.05,2.53-1.58,5.25-2.77,7.93-4.18,1.48-.77,3.25-1.58,4.87-1.14,1.48.4,2.75,1.45,4.07,2.22,7.29,3.4,9.89,5.28,6.63,13.61-1.68,5.75-2.55,11.87-3.83,17.76-.61,5.15-1.52,10.09-2.79,15.05-.54,2.97-.63,5.85-1.57,8.62-.62,2.17-1.65,4.87-.73,7.02,1.28,2.75,5.04,2.73,7.73,2.98,7.21.43,14.1.36,21.55.44,4.15.16,8.02-.43,12.07-1.46,5.74-1.56,8.78,2.52,9.36,7.92.65,7.5.47,14.89.32,22.5-.13,2.95-.58,5.9-1.38,8.74-1.27,4.54-2.84,9-3.86,13.61-1.26,5.42-1.7,10.92-3.87,16.04-14.34,29.89-33.24,56.93-46.89,86.91-2.62,5.58-5.07,11.34-11.97,12.16-6.21,1.21-12.69,1.75-18.8,3.54-5.99,2.18-11.63,5.19-17.8,6.92-9.63,3.4-19.47,5.99-29.6,7.26-8.82,1.67-17.79,2.45-26.73,1.69-5.62-.06-11.02-1.5-16.36-3.16-5.75-1.72-11.45-3.13-17.01-5.21-9.84-4.01-19.41-8.74-28.73-13.72-4.93-2.86-11.56-4.61-7.85-11.75,18.35-41.65,37.5-82.81,55.82-124.44,2.53-5.89,5.16-11.6,7.7-17.38.78-1.87,1.68-3.86,1.53-5.91-.35-3.33-3.67-6.03-2.3-9.63,5.48-13.34,11.94-26.68,17.66-39.92,1.54-3.37,3-6.84,4.38-10.26.7-1.66,1.63-3.43,3.14-4.35l.15-.09Z"/>
  <path class="cls-2" d="M1051.09,661.63c1.37-.82,3.29-.28,4.78.2,4.99,1.71,10,3.57,14.95,5.26,3.37,1.14,6.96,2.13,10.54,1.55,7.81-1.19,12.42-9,19.45-11.88,7.63-3.38,15.99-4.35,24.22-3.27,4.35.84,8.14,3.86,12.16,6,4.41,2.48,9.18,4.68,13.22,7.65,11.3,9.45,21.69,20.13,32.6,29.99,3.47,3.26,6.76,7,10.97,9.33,4.91,2.72,10.89,2.84,16.19,4.31,4.48,1.38,9.18,2.36,13.92,2.58,4.48.43,8.92,1.24,13.35,2.1,4.16.82,8.11,2.18,11.92,4.18,3.46,1.69,5.05,4.66,3.38,8.57-19.89,46.02-41.28,91.31-61.56,137.13-1.07,2.35-2.15,4.84-3.31,7.18-1.24,2.71-3.18,4.42-6.05,3.15-8.57-4.59-17.3-9.52-25.66-14.37-2.27-1.35-4.33-3.07-6.35-4.76-.92-.71-1.9-1.43-3.06-1.56-.2-.02-.39-.02-.59,0-1.95.14-3.45,2.99-5.61,3.51-2.28.59-4.55-.69-6.6-1.65-15.89-8.07-32.23-16.2-48.23-23.87-7.27-3.88-11.41-4.98-19.33-2.04-4.18,1.36-8.61,2.49-12.11,4.77-2.88,1.85-5.43,4.08-8.12,6.22-7.22,6.49-9.36,3.46-15.82-1.46-6.67-4.79-12.88-10.82-20.89-13.34-5.11-1.63-11.84.93-15.86-3.44-1.31-1.45-1.8-3.42-2.44-5.24-1-3.12-2.57-5.98-2.74-9.13-.24-3.89.68-8.67,4.38-10.59,1.5-.89,1.28-1.98.43-3.26-2.9-3.72-2.66-9.87.96-13.16,1.98-1.7,4.86-2.53,6.94-4.31,2-1.61,3.55-3.69,5.23-5.62,2.51-2.98,5.58-5.69,7.95-8.92,2.46-3.77,5.84-7.11,7.86-11.09,2.18-4.94,1.79-11.24,5.87-15.3,2.92-3.03,6.91-5.14,11-5.72,2.2-.38,4.93-.39,6.4-2.29.94-1.18,1.18-2.91,1.48-4.4.68-3.48,2.17-7.01,3.96-10.15,1.97-3.17,4.74-5.93,7.5-8.63,2.71-2.37,5.6-6.93,3.02-10.18-3.21-3.32-9.51-.9-10.82-6.74-1.1-7.02-.63-14.39-1.01-21.41-.02-1.92-.15-4.67,1.43-5.84l.12-.08Z"/>
  <path class="cls-2" d="M989.57,802.25c1.37,1.73,1.08,4.17,1.4,6.26.51,3.57,2.32,6.79,3.32,10.23,2.35,7.8,9.85,5.59,15.98,6.42,8.38,1.83,14.61,8.01,21.37,12.86,3.63,3.19,11.32,6.54,5.61,11.82-9.85,9.9-19.36,20.73-29.32,30.5-6.54,5.84-14.24,10.84-18.49,18.81-3.72,5.93-5.88,12.79-10.45,18.04-8.82,10.17-21.11,16.46-32.13,23.83-7.64,4.61-15.28,8.9-23.06,13.45-3.25,1.6-6.67,4.97-10.49,3.94-1.52-.53-2.77-1.73-4.24-2.39-2.46-1.22-5.52-.34-8.42-.11-4.13.44-8.44-.05-12.47,1.08-3.77.92-4.92,5.81-8.67,6.6-2.42.58-5.11.26-7.6.18-14.36-.71-29.63-1.44-44.27-2.21-6.81-.41-13.83-.44-20.42-2.4-3.67-1.09-7.17-2.69-10.62-4.35-7.03-3.54-14.22-6.69-20.42-11.3-6.6-4.45-12.63-9.11-17.99-15.18-6.13-6.31-10.39-14.38-14-22.29-1.76-4.78-1.56-10.2-4.12-14.75-2.17-4.28-5.62-7.83-9.25-11.22-2.49-2.22-4.99-5.05-4.43-8.61.77-5.1,2.5-11.16,3.52-16.2.92-4.32,2.13-10.03,7.2-11.02,9.85-1.76,22.54-2.46,27.3-12.81,2.48-3.99,7.2-5.81,10.36-9.17,3.08-3.12,4.79-7.41,7.31-11.07,1.93-2.54,1.41-5.34.91-8.31-.17-2.74.44-6.13,1.73-8.42,1.38-2.3,4.06-3.31,6.11-4.9,2.88-2.2,4.51-5.34,7.1-7.76,1.77-1.85,3.22-4.1,5.37-5.27,6.93-2.9,3.43-7.12,1.45-12.1-1.16-3.37,1.16-6.19,3.64-8.65,3.59-3.86,7.61-7.3,12.41-9.56,2.59-1.32,5.36-3.01,7.09-1.92,1.4.89,2.1,2.59,3.39,3.62,3.66,2.98,8.47.6,12.55.32,3.26.18,7.21,2.76,10.72,3.58,1.52.37,3.23,1.35,4.68.5,1.4-1.21.89-3.78,2.04-5.39,3.28-3.82,7.34,2.74,10.48,3.6,3.44,1.34,7.1-.64,10.64-.1,2.88.28,5.6,1.94,8.48,2.11,2.44.27,4.96-.89,7.24.37,3.13,1.72,4.96,5.74,8.09,7.21,1.73.92,3.82,1.19,5.76,1.56,10.08,1.64,15.11,11.45,22.01,17.94,8.03,7.8,9.4-5.43,15.63-7.85,3.97-1.67,8.78.24,13.06-.67,3.96-.1,9.79-3.66,11.64,1.57,1.09,3.24,3.99,5.83,3.54,9.21-.93,4.54-1.09,8.31,2.09,12.03,1.66,2.17,3.44,4.34,5.6,5.62,1.33.83,2.89,1.42,3.93,2.61l.1.12Z"/>
  <path class="cls-2" d="M1049.76,660.61c1.57,2.01,1.56,4.84,1.67,7.31.29,6.76.04,13.54.85,20.27,1.13,7.23,8.54,3.85,11.26,7.67,1.05,1.8.68,4.12-.2,5.95-1.76,3.35-5.04,5.53-7.41,8.43-4.23,4.54-6.56,10.65-7.62,16.72-.5,2.36-2.37,3.7-4.69,4-6.81.56-14.17,4.14-16.56,11-1.29,3.5-1.41,7.44-3.06,10.73-1.77,3.45-4.58,6.34-6.74,9.57-3.74,5.05-8.21,9.38-12.23,14.14-2.28,2.75-6,3.91-8.66,5.97-2.69,2.34-3.53,6.55-2.65,9.94.49,1.9,2.11,3.72,2.3,4.83.22,1.23-1.19,1.77-2.11,2.26-2.56,1.15-5.39,3.01-8.24,1.88-3.67-1.61-7.68-6.98-8.64-11.04-.57-2.63.65-5.22.48-7.85-.21-2.68-2.56-5.48-3.57-8.3-1.42-4.37-5.99-2.19-9.27-1.68-1.65.28-3.34.49-5.02.54-3.64.22-7.25-1.05-10.29.44-6.51,2.84-7.58,16.01-16.06,7.41-5.67-5.57-10.06-13.16-17.62-16.44-3.13-1.39-6.43-1.06-9.46-2.61-3.15-1.44-5.17-5.66-8.38-7.3-1.6-.75-3.49-.46-5.39-.32-2.74.3-5.26-.86-7.81-1.67-3.89-1.51-8.29.75-12.04-.11-3.46-.6-6.03-5.44-9.88-5.11-3.47.84-1.06,7.75-5.28,6.93-2.14-.43-4.33-1.27-6.42-1.99-3.02-1.08-5.52-2.85-8.39-2.3-14.69,4.28-10.85-5.56-17.58-3.98-4.27,1.68-8.44,4.03-11.88,6.95-3,2-8.49,11.19-11.82,6.4-1.69-2.91-1.05-6.56-.88-9.75.14-1.92.32-3.88,1.04-5.68,2.61-5.16,5.95-9.9,1.32-15.04-.86-1.04-1.83-2.49-1.12-3.69,1.33-1.85,4.22-2.02,6.26-2.85,5.31-1.85,9.16-6.76,14.18-9.45,2.13-1.28,4.99-1.84,6.72-3.64,3.89-5.11-8.72-15.17-6.62-21.12,1.81-4.46,5.99-9.03,10.11-11.09,2.97-1.58,6.37-1.12,9.54-1.66,1.9-.42,3.16-2.06,5.45-2.74,1.28-.41,2.66-.56,4.01-.62,13.21-.21,26.57.73,39.58,3.12,4.51.92,9.04,2,13.63,2.43,7.27.74,14.77-.41,21.99-1.14,6.65-.74,13.45-1.1,19.99-2.32,5.69-1.06,11.26-2.87,17.01-3.61,6.48-.8,13.1-.21,19.58-.55,10.28-.48,20.43-.65,30.76-.67,2.58-.01,5.21-.09,7.71-.68,7.5-1.58,13.27-8.38,20.78-9.69,2.67-.48,5.69-.19,7.24,1.66l.11.13Z"/>
  <path class="cls-2" d="M841.78,351.37c6.24-1.44,15.8,2.71,17.57,8.43.71,2.14.29,4.84,1.69,6.71,1.69,2.45,6.33,1.88,9.3,1.14,2.59-.57,5.06-.58,4.3,2.87-1.22,4.23-1.97,8.54-2.09,12.98-.48,4.44.83,8.55,3.22,12.35,4.04,6.52,5.85,14.04,7.31,21.46,1.43,4.3,2.72,8.9,4.92,12.9,2.08,3.17,6.21,4.5,9.31,6.93,4.11,2.78,5.77,7.61,5.53,12.42-.01,3.38.16,6.84-.43,10.15-1.21,5.38-3.66,10.49-3.38,16.12.38,9.41,3.99,18.41,5.68,27.65,2.58,8.17-5.01,13.88-12.17,15.25-3.62.74-8.52.34-10.38,4.23-2.12,5.35-.15,11.5,2.33,16.4,4.71,8.97,13.62,14.7,23.15,17.25,7.52,3.85,7.57,4.29,16.04,2.41,3.18-.63,6.9.86,9.87.33,3.03-.79,5.95-2.38,9.15-2.85,6.73-.94,18.43-3.93,20.05,5.07.29,1.51.43,3.1.81,4.6.81,3.68,3.71,6.59,6.24,9.41,2.11,2.4,3.75,5.1,6.29,6.88,1.64,1.22,3.45,2.29,4.7,3.95,2.88,4.24,4,9.63,4.4,14.68.13,2.44.09,5.02,1.1,7.26,1.85,3.53,6.55,9.71,10.81,8.19,1.75-.59,3.72-2.26,5.58-3.26,1.88-1.08,3.94-1.53,6.01-2.07,3.48-.9,6.99-2.71,10.53-1.65,3.78.98,5.81,4.42,7.39,7.9,1.6,3.1,2.84,6.22,3.5,9.59.43,2.35,2.24,3.52,4.69,2.21,5.46-3.22,11.75-5.43,14.72,2.07.76,2,.92,4.17.99,6.29.14,4.9.22,9.47.42,14.54.58,10.06-3.58,7.7-11.13,9.81-6.05,2.03-11.35,7.39-17.68,8.81-12.01,1.81-24.33.52-36.47,1.37-5.84.38-11.61.14-17.49.34-10.23.42-19.91,4.55-30.15,5.13-10.32.92-20.52,2.7-30.86,2.43-7.26-.29-14.31-2.52-21.47-3.56-5.79-.87-11.64-1.28-17.47-1.65-6.18-.3-12.24-1.06-18.51-.26-2.66.38-4.78,2.04-7.26,2.87-2.39.84-5.4.4-8.15,1.38-4.15,1.23-6.96,4.71-9.7,7.82-5.04,6.12-9.55-1.69-12.64-5.76-5.95-7.83-12.29-14.98-18.3-22.78-6.29-8.36-14.33-15.32-19.86-24.16-1.36-2.24-3.7-4.44-3.57-7.18.23-1.86,2.99-2.93,4.49-4.95,1.84-2.44,2.21-5.76,4.41-7.96,6.8-6.85,16.82,2.76,14.61-3.46-1.84-4.7-5.98-7.93-9.39-11.56-2-2.08-3.43-4.76-3.24-7.71.48-5.52,2.1-10.94,3.54-16.2,1.92-5.89,2.96-12.37.11-18.14-2.32-5.4-5.51-10.87-5.78-16.74-.68-4.71,2.94-9.92,1.07-14.35-1.82-2.78-5.87-1.58-9.01-3-1.98-.79-3.56-2.34-4.61-4.19-2.71-4.87-2.77-10.89-1.49-16.18,1.08-4.22,2.37-8.64,1.06-12.96-1.38-4.57-3.66-9.13-6.82-12.78-4.68-3.87-7.52-3.5-6.18-11.03.64-3.14,2.01-6.07,2.7-9.21.81-3.45.51-7.15.27-10.67-.25-3.88-.48-7.76-1.81-11.45-2.06-5.08-3.32-8.21-.25-13.52,1.79-3.87,3.21-7.58,4.42-11.52.59-2.19.32-4.45.12-6.67-.37-3.94.53-8.14,2.62-11.52,3.89-6.5,12.58-3.88,18.65-6.63,3.52-1.93,5.43-6.03,7.86-9.13,1.41-1.93,2.86-3.65,4.73-4.67,4.15-1.99,8.92-2.23,13.3-3.64,3.02-.78,5.97-1.66,8.42-3.32,1.51-.98,3.01-2.2,4.73-2.71,3.06-.95,6.28.78,9.37.02,5.7-1.09,8.51-7.89,13.52-9.48l.17-.05Z"/>
  <path class="cls-1" d="M607.59,294.25c5.86-4.92,12.99-8.06,20.56-9.17,4.07-.59,8.12-1.31,11.76-2.42,14.99-5.37,24.06-23.81,40.46-24.16,5.53-.12,11.91-.47,16.2-4.11,11.2-9.82,15.61-32.47,35.26-35.61,11.35-5.33,14.12,7.34,22.01,12.42,4.19,4.68,9.78,5.4,15.56,5.39,10.65,4.75,12.32,17.55,15.96,27.26,2.49,3.99,7.73,5.29,10.04,9.46,3.17,5.26,3.57,13.42,7.23,18.32,2.22,3.14,6.01,4.26,9.06,6.36,4.59,3.19,7.33,8.78,11.2,12.93,11.42,12.25,5.39,37.39,26.99,42.84,7.48,2.95,10.83-3.78,15.77-7.56,15.06-7.79,33.81-16.45,32.71-36.26-.66-3.25-3.83-5.44-5.99-8.47-6.65-9.09,6.21-18.61.29-28.3-2.89-11.92-11.91-20.38-16.21-31.68-8.61-14.12,9.48-18.45,17.27-26.39,8.1-7.13,9.16-20.09,19.77-24.2,8.7-3.19,19.91-8.12,17.91-19.28-.73-10.66.38-21.39-.99-31.96-1.51-7.19-2.56-14.54-4.04-21.69-1.48-3.54-.61-7.57,2.64-9.82,10.8-10.95,20.93-22.83,36.81-20.78,3.31-.7,3.86-2.91,7.38-3.88,4.62-1.55,10.01.46,14.56-.56,13.48-7.18-9.84-25.13,10.06-57.69,3.06-6.86,10.49-8.75,16.54-11.4,3.28-2.53,3.61-7.49,6.83-10.13,3.6-3.04,9.77-3.51,14.1-1.39l.17.08c9.11,6.65,20.51,8.28,30.54,3.11,14.55-1.03,7.87,34.68,21.7,40.95,14,8.43,36-22.9,42.73-11.53,2.76,5.67,8.9,11.18,15.23,8,23.43-16.41,1.08,49.32,30.29,20.61,11.12-6.16,20.64,2.33,33.18-1.26,13.24-2.13,17.75-16.66,27.15-24.09,24.4-5.84,53.32-30.6,63.44,8.68,1.19,5.64,5.25,8.5,10.46,9.24,14.99,5.08,40.17.98,34.79,24.81-1.19,5.09-5.39,8.41-8.14,12.63-3.49,5.03-5.03,11.18-6.46,17.09-2.29,6.1,1.49,10.93,4.52,15.8,2.44,8.87,7.48,17.25,9.17,26.27-.06,16.11-12.24,36.78,1.67,50.22,9.73,15.63-52.42,25.91-32.65,32.1,6.41,3.32,14.9-5.45,18.42,1.16,11.8,15.25-6.92,22.54,4.49,40.29,3.78,10.66,17.22,9.13,26.25,8.12,11.23,1.71,26.55-1.45,34.11,8.41,4.52,5.97,13.96,8.4,12.32,17.34-.28,2.9-3.25,6.26-2.4,8.92.42,1.57,1.74,3.27,2.77,5.36,4.03,8.73,1.56,19.1-.06,28.25-2.75,9.39-12.04,15.18-19.47,20.98-5.44,3.27-6,9.29-7.81,14.74-1.7,4.52-5.16,8.66-3.78,13.35,4.69,13.75,21.9,6.6,32.34,10.46,6.78,3.02,14.92,4.69,18.64,11.7,2.33,3.93,1.39,8.45,1.22,12.77-.23,5.64,1.71,10.6,1.9,16.33.23,7.79-3.71,15.08,1.68,22.11,8.07,14.89-10.32,31.04-13.53,40.81-4.5,11.02,23.03,20.52,10.44,30.54-6.67,2.79-14.95,3.03-18.09,10.57-3.32,5.88-6.61,11.74-8.29,18.34-1.4,4.7-1.16,10.53-4.08,14.61-10.95,5.66-25.29,4.99-36.67,10.75-1.26.75-9.89,1.51-7.3,3.03,36.02,3.12,2.65,33.2,12.43,50.01,3.64,3.44,10.2,5.37,8.93,11.66-2.98,11.44-4.99,23.23-7.08,34.83.03,5.59-5.25,12.95-1.16,17.8,1.96,1.67,5.44,1.79,8.01,1.97,16.78,1.65,33.01-1.73,49.58-1.09,8.15-2.74,11.74-12.23,18.99-16.54,6.01-4.55,12.88-7.1,19.76-10.24,36.48-20,79.13-25.64,115.83-45.29,8.21-4.71,16.21-9.57,24.35-14.47,8.97-4.55,16.53-13.42,27.33-12.29,11.09.79,22.79,1.23,33.18-2.9,2.59-.8,6.2-3.14,8.07-.75.49,1.65-.49,3.54-1.4,5.01-12.3,16.66,6.26,33.99,9.63,50.54,2.37,6.71,1.79,14.03,3.71,20.84,2.43,8.91,8.48,17.08,8.45,26.53.47,11.92-3.48,24.47-.26,36.12,7.37,8.91,3.06,20.24,4.55,30.69.8,11.17-7.63,4.75-13.56,2.67-5.72-1.38-10.36,2.71-15.6,4.12-10.62.49-21.32,2.43-32.01,2.6-2.8.15-4.15,1.41-6.78,1.87-6.4.33-13.67-1.19-17.34,5.67-10.26,15.33-22.84,29.03-31.25,45.61-5.72,14.5.77,26.72-13.53,38.87-5.91,5.77-6.77,14.37-11.32,20.88-4.61,4.88-11.92,7.42-12.31,15.28-2.85,20.06,7.4,20.34-16.65,22.83-.76.3-1.5.96-.88,1.77,21.3,13.8-1.57,8-1.78,28.78.75,7.3,1.57,16.43,7.49,21.49,6.18,3.34,12.5,8.41,19.57,8.73,6.09-.12,11.7-5.36,17.53-1.34,7.87,5.37,17.31,8,26.7,6.44,5.71,3.45,14.41,8.25,13.02,15.8-4.46,10.87-2.58,23.29-7.95,33.65-3.38,8.61-6.32,19.08-16.02,22.42-6.9,1.77-14.48,3.85-15.24,12.16-1.68,8.31-4.88,16.18-6.74,24.41-.78,9.65-3.27,20.58-14.48,22.68-5.7,1.66-14.06-.77-17.07,5.84-13.95,25.88-37.11-12.55-44.73,5.66-.65,3.76-.26,8.27.21,12.13.21,8.43,20.17,8.75,12.74,17.53-6.93,4.77-16.63,4.76-24.37,2-2.95-.72-6.89-4.41-10.08-3.34-1.4.6-1.73,2.76-2.06,4.25-.86,8.65-10.33,13-15.63,19.52-6.03,5.84-15.84,8.84-16.96,18.11-1.31,7.06-3.27,12.9-11.94,5.56-3.84-3.49-3.95-6.67-8.27-8.99-7.58-2.95-17.2-5.32-25.37-4.25-7.18,1.96-4.78,9.52-12.14,13.27-6.04,2.63-14.85,4.17-20.89,1.55-2.55-.99-4.05-7.32-7.33-6.22-5.4,4.09-1.82,12.69-4.17,17.89-6.34,9.89-13.67,19.39-19.93,29.45-7.58,8.34-4.62,20.58-8.7,29.93-6.39,4.9-14.67,3.47-18.87,14.47-7.78,17.05-29.86-5.5-42.67,2.87-9.18,6.6,6.57,13.75,6.04,19.97-.82,6.04-8.19,8.09-10.23,13.5-1.56,5.15-2.85,10.72-2.99,16.04.16,3.53,1.25,9.02-3.52,9.3-7.97-1.58-13.84,4.49-20.94,5.71-16.02-3.92-32.46-4.56-47.96,2.08-5.03.87-8.4-3.13-12.31-5.52-3.16-1.94-6.91-2.85-9.15-5.33-2.49-2.6-3.46-6.88-5.54-9.99-10.3-10.07-17.73-27.71-34.04-28.13-23.32-5.78,3.52-23.62-.37-36.54-2.53-6.57-1.67-12.57-2.05-19.14-.83-4.22-3.36-7.99-4.02-12.19-.08-14.11,5.27-19.27-5.21-31.6-1.68-5.41-3.59-10.83-5.14-16.26-.56-5.35,3.62-12.04-1.26-16.44-7.5-6.81-13.96-7.45-15.9,3.61-5.43,11.75-11.4,24.96-22.88,31.71-15.83,8.44-37.39,16.14-54.24,7.56-8.36-6.83-11.95-18.26-17.38-27.44-5.93-7.97-7.97-17.76-12.63-26.18-3.17-3.25-8.76-2.31-13.02-2.78-27.04-2.89-6.3,16.18-16.75,25.56-3.14,2.51-6.84,2.93-10.18,4.82-3.76,2.46-6.97,5.74-10.94,7.9-8.03,6.37-16.15,12.43-26.73,13.83-12.84,3.28-5.45,11.96-16.51,20.73-39.55,33.57-8.55,18.42-60.64,35.97-8.52,3.75-2.86,16.43-9.08,22.59-3.32,3.59-8.64,3.34-13.07,4.36-4.1,1.14-7.25,4.72-11.6,5.73-9.8,1.81-19.79-1.9-29.49,1.67-6.54.58-12.04,3.06-17.67,6.03-4.01,1.54-8.81,1.02-12.69,3.59-16.72,12.28-16.62-6.15-18-18.69-5.21-11.76-18.81-16.25-26.41-25.84-3.22-5.47-1.26-18.04-9.89-19.2-12.88,4.44-24.32,18.08-31.89,29.23-3.51,5.56-4.04,13.27-9.85,17.06-4.38,2.49-10.02,1.45-14.77,2.87-22.95,8.1-12.81,39.02-43.84,30.33-4.61-.83-6.4-5.38-8.23-9.17-2.75-5.34-9.52-8.36-11.71-14.12-.91-3.67,3-6.93,1.04-10.6-4.27-8.13-1.9-16.22-9.43-22.91-17.52-10.88-4.45-11.37-8.74-25.33-5.02-17.86-7.46-7.58-19.52-12.25-3.66-1.96-3.29-7.48-5.65-10.71-4.25-4.7-11.48-7.41-11.41-14.92.25-4.3-2.16-10.17-.1-13.87,2.77-3.82,12.74-3,9.4-10.22-19.43-36.63-53.12-69.35-58.84-111.93-.46-6.98,15.42-16.44,8.61-21.39-5.81-2.59-17.94,1.76-8.64-9.85-3.72-7.38-11.57,4.09-19.61-20.2-5.72-5.54-6.72,7.67-12.69,10.84-5.67,5.64-14.14,6.82-19.25,13.1-6.15,7.18-9.31,14.77-18.04,19.89-6.38,3.1-9.12,9.87-13.59,14.93-2.84,3.23-7.83,6.19-11.78,5.63-4.5-.08-8.57-3.23-12.89-1.39-11.79,6.2-1.54,37.79-10.73,39.23-5.35-2.14-11.4-2.54-17.09-3.34-5.8-3.32-12.48-1-18.62-2.34-6.48-1.71-10.5-9.21-17.35-10.21-5.48-.88-9.11,4.92-14.16,5.9-7.57.98-15.74-1.5-23.23,1.47-16.69-5.4-9.71-28.65-12.22-42.24-.51-8.43,8.88-10.26,13.18-15.95,8-17.47-19.64-19.13-28.58-27.89-4.86-3.14-7.75-8.2-9.55-13.68-1.48-3.49-2.01-9.71,1.98-11.13,21.28-1.06,19.52-9.73,30.59-23.43,7.75-11.02,1.75-21.9,11.97-33.04-.24-11.11,2.14-22.97-2.63-33.28-1.63-6.63,4.8-12.13,6.6-18.26,3.8-9.23-1.75-20.83,4.7-29.05,4.01-4.48,9.11-8.1,7.74-14.95,0-7.68-5.31-10.57-10.98-13.74-5.17-3.6-6.32-10.73-9.36-16-2.03-3.45-4.56-6.82-4.61-10.99-.02-29.3,1.58-26.35-25.38-26.45-3.56-.62-5.54-5.76-8.03-6.85-2.61-.61-4.4,2.44-6.77,3.04-16.12-1.7-4.36-12.91-33.83-7.88-8.1,1.05-11.38,10.68-16.53,15.48-2.86,5.7-5.29,11.44-11.41,14.56-9.61,8.16-14.3,1.4-11.99-11.46,3.3-10.95.97-9.09-6.8-14.29-2.3-2.08-2.89-5.49-5.23-7.5-2.31-1.92-5.64-2.54-8.12-4.28-5.88-5.21-11.39-10.86-19.91-9.2-6.73.46-13.58,1-19.33-2.34-5.35-2.91-9.47-7.98-15.16-10.23-5.11-2.24-11.57.2-16.49-2-7.05-4.44-10.52-13.49-14.2-20.48-1.06-7.66-21.24-12.11-3.84-13.43,5.49-.75,8.5-6.86,14.14-7.11,7.87-.09,6.83-3.05,8.63-9.2,1.63-2.76,4.56-4.46,6.59-6.92,3.39-3.74,5.48-7.66,9.57-4.18,7.41,5.6,2.84-4.12,1.38-7.17-.97-8.35-7.93-15.79-7.78-24.09,1.43-3.53,4.6,1.81,6.61,2.25,3.07,1.1,5.89-2.31,8.69-3.79,10.62-3.39,8.35-8.73,14.19-16.84.38-4.75-.22-11.8,4.54-15.39,7.96-6.68,17.29-12.62,26.25-17.73,3.74-1.46,8.87,1.03,11.99-1.76,3.59-9.47.86-22.22,8.1-30.77,2.13-1.91,5.43.32,7.26-2.22,2.96-4.7,3.68-11.45,7-15.72,11.56-8.44,9.86-6.86,4.67-19.44-1.35-15.77-15.52-31.42-6.38-46.88,3.17-4.27,7.68-6.56,8.91-11.98,8.6-23.7,30.49,2.88,39.29,13.35,14.76,15.36,26.91,33.8,43.94,46.87,7.65,6.39,17.19,9.23,25.97,13.61,21.89,13.73,44.86,29.94,66.7,44.09,14.44,9.03,27.68,21.64,45.42,22.99,9.51,3.52,16.95-3.93,26.31-4.18,5.58-1.76,10.48-2.3,15.91-.51,4.23.85,6.94-2.74,10.13-4.81,11.29-6.18,27.81-6.87,35.32-18.64,4.49-7.63,1.44-17.88,5.28-25.21,5.58-6.24,8.19-14.11,12.7-20.99,5.25-6.36,12.18-11.33,17.11-18.15,5.79-5.26,8.67.1,5.43,5.63-2.93,5.55-1.91,13.33,4.13,16,10.63,3.22,21.66-.19,32.46.64,6.23.46,15.24-1.54,17.3-8.33.87-3.82-1.33-8.32.06-12.2,1.29-4.21,5.55-6.75,7.3-10.71,2.43-11.66-1.25-24.56-3.01-36.16-.02-4.01,3.47-6.75,4.61-10.4,1.08-6.83,1.27-13.87,1.33-20.84-.16-8.61-4.69-16.82-2.56-25.47,1.87-8.19,3.74-16.62,7.78-23.98,5.07-5.78,9.55-11.94,13.51-18.51,3.64-9.93-1.74-10.93,7.16-22.86,8.54-13.18-9.3-22.45-5.2-33.62,2.9-6.64,10.88-9.33,13.59-15.84,1.93-6.86-1.35-14.51,1.41-21.34.84-2.47,2.61-4.6,4-6.94,2.47-4.18,5.54-7.98,9.27-11.1l.07-.06Z"/>
  <text class="cls-3" transform="translate(183.34 732)"><tspan x="0" y="0"></tspan></text>
  <text class="cls-3" transform="translate(296.83 945)"><tspan x="0" y="0"></tspan></text>
  <text class="cls-3" transform="translate(255.83 1083)"><tspan x="0" y="0"></tspan></text>
  <text class="cls-3" transform="translate(537.43 1287.05) rotate(-.04)"><tspan x="0" y="0"></tspan></text>
  <text class="cls-3" transform="translate(657.97 1196)"><tspan x="0" y="0"></tspan></text>
  <text class="cls-3" transform="translate(517.78 925)"><tspan x="0" y="0"></tspan></text>
  <text class="cls-3" transform="translate(690.67 1015)"><tspan x="0" y="0"></tspan></text>
  <text class="cls-3" transform="translate(915.75 1109)"><tspan x="0" y="0"></tspan></text>
  <text class="cls-3" transform="translate(1098.68 1045)"><tspan x="0" y="0"></tspan></text>
  <text class="cls-3" transform="translate(1343.36 992)"><tspan x="0" y="0"></tspan></text>
  <text class="cls-3" transform="translate(1468.32 782)"><tspan x="0" y="0"></tspan></text>
  <text class="cls-3" transform="translate(1243.77 812)"><tspan x="0" y="0"></tspan></text>
  <text class="cls-3" transform="translate(1058.22 790)"><tspan x="0" y="0"></tspan></text>
  <text class="cls-3" transform="translate(809.35 884)"><tspan x="0" y="0"></tspan></text>
  <text class="cls-3" transform="translate(517.62 748)"><tspan x="0" y="0"></tspan></text>
  <text class="cls-3" transform="translate(620.15 658.62)"><tspan x="0" y="0"></tspan></text>
  <text class="cls-3" transform="translate(600.44 444)"><tspan x="0" y="0"></tspan></text>
  <text class="cls-3" transform="translate(832.68 621)"><tspan x="0" y="0"></tspan></text>
  <text class="cls-3" transform="translate(900.9 740)"><tspan x="0" y="0"></tspan></text>
  <text class="cls-3" transform="translate(972.81 535)"><tspan x="0" y="0"></tspan></text>
  <text class="cls-3" transform="translate(972.98 357.26)"><tspan x="0" y="0"></tspan></text>
  <text class="cls-3" transform="translate(1039.29 231.69)"><tspan x="0" y="0"></tspan></text>
  <text class="cls-3" transform="translate(1216.91 340)"><tspan x="0" y="0"></tspan></text>
  <text class="cls-3" transform="translate(1267.88 536)"><tspan x="0" y="0"></tspan></text>
  <text class="cls-3" transform="translate(1083.37 640)"><tspan x="0" y="0"></tspan></text>
</svg>